<?xml version="1.0" encoding="utf-8"?>
<!-- Generator: Adobe Illustrator 24.1.2, SVG Export Plug-In . SVG Version: 6.00 Build 0)  -->
<svg version="1.1" id="Vrstva_1" xmlns="http://www.w3.org/2000/svg" xmlns:xlink="http://www.w3.org/1999/xlink" x="0px" y="0px"
	 viewBox="0 0 300 300" style="enable-background:new 0 0 300 300;" xml:space="preserve">
<style type="text/css">
	.st0{fill:none;}
	.st1{fill:#F7BC60;}
	.st2{fill:#FFFFFF;}
	.st3{fill-rule:evenodd;clip-rule:evenodd;fill:#62347E;}
</style>
<pattern  y="1156.5" width="69" height="69" patternUnits="userSpaceOnUse" id="Puntíkovaný_vzorek" viewBox="2.1 -70.9 69 69" style="overflow:visible;">
	<g>
		<rect x="2.1" y="-70.9" class="st0" width="69" height="69"/>
		<rect x="2.1" y="-70.9" class="st1" width="69" height="69"/>
		<g>
			<path class="st2" d="M61.8-71.7c0,0.1,0,0.1,0,0.2c-0.1,0.1-0.1,0.1-0.2,0.1c-0.1,0.1-0.1,0.3-0.1,0.4c-0.2,0.1,0,0.2,0,0.3
				c0,0,0,0.1,0,0.2c0,0.1,0,0.3,0.1,0.4c0.1,0.2,0.3,0.4,0.4,0.5c0.2,0.1,0.4,0.6,0.6,0.6c0.2,0,0.4-0.1,0.5-0.1
				c0.2,0,0.4,0,0.6-0.1c0.2-0.1,0.1-0.3,0.3-0.5c0.1-0.1,0.3,0,0.4-0.1c0.2-0.1,0.3-0.3,0.4-0.5c0-0.1,0-0.1,0-0.2
				c0-0.1,0.1-0.2,0.1-0.3c0-0.1-0.1-0.1-0.1-0.2c0-0.1,0-0.2,0-0.3c0-0.2,0-0.4-0.1-0.5c-0.4-0.7-1.2-0.9-2-0.8
				c-0.2,0-0.3,0.1-0.4,0.2c-0.2,0.1-0.1,0.2-0.3,0.2c-0.1,0-0.2,0.1-0.2,0.2C61.8-71.7,61.8-71.7,61.8-71.7
				C61.8-71.6,61.8-71.6,61.8-71.7"/>
			<path class="st2" d="M54.1-71.7c0,0.1,0,0.1,0,0.2c-0.1,0.1-0.1,0.1-0.2,0.1c-0.1,0.1-0.1,0.3-0.1,0.4c-0.2,0.1,0,0.2,0,0.3
				c0,0,0,0.1,0,0.2c0,0.1,0,0.3,0.1,0.4c0.1,0.2,0.3,0.4,0.4,0.5c0.2,0.1,0.4,0.6,0.6,0.6c0.2,0,0.4-0.1,0.5-0.1
				c0.2,0,0.4,0,0.6-0.1c0.2-0.1,0.1-0.3,0.3-0.5c0.1-0.1,0.3,0,0.4-0.1c0.2-0.1,0.3-0.3,0.4-0.5c0-0.1,0-0.1,0-0.2
				c0-0.1,0.1-0.2,0.1-0.3c0-0.1-0.1-0.1-0.1-0.2c0-0.1,0-0.2,0-0.3c0-0.2,0-0.4-0.1-0.5c-0.4-0.7-1.2-0.9-2-0.8
				c-0.2,0-0.3,0.1-0.4,0.2c-0.2,0.1-0.1,0.2-0.3,0.2c-0.1,0-0.2,0.1-0.2,0.2C54.1-71.7,54.1-71.7,54.1-71.7
				C54.1-71.6,54.1-71.6,54.1-71.7"/>
			<path class="st2" d="M46.4-71.7c0,0.1,0,0.1,0,0.2c-0.1,0.1-0.1,0.1-0.2,0.1c-0.1,0.1-0.1,0.3-0.1,0.4c-0.2,0.1,0,0.2,0,0.3
				c0,0,0,0.1,0,0.2c0,0.1,0,0.3,0.1,0.4c0.1,0.2,0.3,0.4,0.4,0.5c0.2,0.1,0.4,0.6,0.6,0.6c0.2,0,0.4-0.1,0.5-0.1
				c0.2,0,0.4,0,0.6-0.1c0.2-0.1,0.1-0.3,0.3-0.5c0.1-0.1,0.3,0,0.4-0.1c0.2-0.1,0.3-0.3,0.4-0.5c0-0.1,0-0.1,0-0.2
				c0-0.1,0.1-0.2,0.1-0.3c0-0.1-0.1-0.1-0.1-0.2c0-0.1,0-0.2,0-0.3c0-0.2,0-0.4-0.1-0.5c-0.4-0.7-1.2-0.9-2-0.8
				c-0.2,0-0.3,0.1-0.4,0.2c-0.2,0.1-0.1,0.2-0.3,0.2c-0.1,0-0.2,0.1-0.2,0.2C46.4-71.7,46.4-71.7,46.4-71.7
				C46.4-71.6,46.4-71.6,46.4-71.7"/>
			<path class="st2" d="M38.8-71.7c0,0.1,0,0.1,0,0.2c-0.1,0.1-0.1,0.1-0.2,0.1c-0.1,0.1-0.1,0.3-0.1,0.4c-0.2,0.1,0,0.2,0,0.3
				c0,0,0,0.1,0,0.2c0,0.1,0,0.3,0.1,0.4c0.1,0.2,0.3,0.4,0.4,0.5c0.2,0.1,0.4,0.6,0.6,0.6c0.2,0,0.4-0.1,0.5-0.1
				c0.2,0,0.4,0,0.6-0.1c0.2-0.1,0.1-0.3,0.3-0.5c0.1-0.1,0.3,0,0.4-0.1c0.2-0.1,0.3-0.3,0.4-0.5c0-0.1,0-0.1,0-0.2
				c0-0.1,0.1-0.2,0.1-0.3c0-0.1-0.1-0.1-0.1-0.2c0-0.1,0-0.2,0-0.3c0-0.2,0-0.4-0.1-0.5c-0.4-0.7-1.2-0.9-2-0.8
				c-0.2,0-0.3,0.1-0.4,0.2c-0.2,0.1-0.1,0.2-0.3,0.2c-0.1,0-0.2,0.1-0.2,0.2C38.8-71.7,38.8-71.7,38.8-71.7
				C38.8-71.6,38.8-71.6,38.8-71.7"/>
			<path class="st2" d="M31.1-71.7c0,0.1,0,0.1,0,0.2c-0.1,0.1-0.1,0.1-0.2,0.1c-0.1,0.1-0.1,0.3-0.1,0.4c-0.2,0.1,0,0.2,0,0.3
				c0,0,0,0.1,0,0.2c0,0.1,0,0.3,0.1,0.4c0.1,0.2,0.3,0.4,0.4,0.5c0.2,0.1,0.4,0.6,0.6,0.6c0.2,0,0.4-0.1,0.5-0.1
				c0.2,0,0.4,0,0.6-0.1c0.2-0.1,0.1-0.3,0.3-0.5c0.1-0.1,0.3,0,0.4-0.1c0.2-0.1,0.3-0.3,0.4-0.5c0-0.1,0-0.1,0-0.2
				c0-0.1,0.1-0.2,0.1-0.3c0-0.1-0.1-0.1-0.1-0.2c0-0.1,0-0.2,0-0.3c0-0.2,0-0.4-0.1-0.5c-0.4-0.7-1.2-0.9-2-0.8
				c-0.2,0-0.3,0.1-0.4,0.2c-0.2,0.1-0.1,0.2-0.3,0.2c-0.1,0-0.2,0.1-0.2,0.2C31.1-71.7,31.1-71.7,31.1-71.7
				C31.1-71.6,31.1-71.6,31.1-71.7"/>
			<path class="st2" d="M23.4-71.7c0,0.1,0,0.1,0,0.2c-0.1,0.1-0.1,0.1-0.2,0.1c-0.1,0.1-0.1,0.3-0.1,0.4c-0.2,0.1,0,0.2,0,0.3
				c0,0,0,0.1,0,0.2c0,0.1,0,0.3,0.1,0.4c0.1,0.2,0.3,0.4,0.4,0.5c0.2,0.1,0.4,0.6,0.6,0.6c0.2,0,0.4-0.1,0.5-0.1
				c0.2,0,0.4,0,0.6-0.1c0.2-0.1,0.1-0.3,0.3-0.5c0.1-0.1,0.3,0,0.4-0.1c0.2-0.1,0.3-0.3,0.4-0.5c0-0.1,0-0.1,0-0.2
				c0-0.1,0.1-0.2,0.1-0.3c0-0.1-0.1-0.1-0.1-0.2c0-0.1,0-0.2,0-0.3c0-0.2,0-0.4-0.1-0.5c-0.4-0.7-1.2-0.9-2-0.8
				c-0.2,0-0.3,0.1-0.4,0.2c-0.2,0.1-0.1,0.2-0.3,0.2c-0.1,0-0.2,0.1-0.2,0.2C23.4-71.7,23.4-71.7,23.4-71.7
				C23.4-71.6,23.4-71.6,23.4-71.7"/>
			<path class="st2" d="M15.8-71.7c0,0.1,0,0.1,0,0.2c-0.1,0.1-0.1,0.1-0.2,0.1c-0.1,0.1-0.1,0.3-0.1,0.4c-0.2,0.1,0,0.2,0,0.3
				c0,0,0,0.1,0,0.2c0,0.1,0,0.3,0.1,0.4c0.1,0.2,0.3,0.4,0.4,0.5c0.2,0.1,0.4,0.6,0.6,0.6c0.2,0,0.4-0.1,0.5-0.1
				c0.2,0,0.4,0,0.6-0.1c0.2-0.1,0.1-0.3,0.3-0.5c0.1-0.1,0.3,0,0.4-0.1c0.2-0.1,0.3-0.3,0.4-0.5c0-0.1,0-0.1,0-0.2
				c0-0.1,0.1-0.2,0.1-0.3c0-0.1-0.1-0.1-0.1-0.2c0-0.1,0-0.2,0-0.3c0-0.2,0-0.4-0.1-0.5c-0.4-0.7-1.2-0.9-2-0.8
				c-0.2,0-0.3,0.1-0.4,0.2c-0.2,0.1-0.1,0.2-0.3,0.2c-0.1,0-0.2,0.1-0.2,0.2C15.8-71.7,15.8-71.7,15.8-71.7
				C15.8-71.6,15.8-71.6,15.8-71.7"/>
			<path class="st2" d="M8.1-71.7c0,0.1,0,0.1,0,0.2C8-71.4,8-71.4,7.9-71.3c-0.1,0.1-0.1,0.3-0.1,0.4c-0.2,0.1,0,0.2,0,0.3
				c0,0,0,0.1,0,0.2c0,0.1,0,0.3,0.1,0.4c0.1,0.2,0.3,0.4,0.4,0.5c0.2,0.1,0.4,0.6,0.6,0.6c0.2,0,0.4-0.1,0.5-0.1
				c0.2,0,0.4,0,0.6-0.1c0.2-0.1,0.1-0.3,0.3-0.5c0.1-0.1,0.3,0,0.4-0.1c0.2-0.1,0.3-0.3,0.4-0.5c0-0.1,0-0.1,0-0.2
				c0-0.1,0.1-0.2,0.1-0.3c0-0.1-0.1-0.1-0.1-0.2c0-0.1,0-0.2,0-0.3c0-0.2,0-0.4-0.1-0.5c-0.4-0.7-1.2-0.9-2-0.8
				c-0.2,0-0.3,0.1-0.4,0.2c-0.2,0.1-0.1,0.2-0.3,0.2c-0.1,0-0.2,0.1-0.2,0.2C8.1-71.7,8.1-71.7,8.1-71.7
				C8.1-71.6,8.1-71.6,8.1-71.7"/>
			<path class="st2" d="M0.4-71.7c0,0.1,0,0.1,0,0.2c-0.1,0.1-0.1,0.1-0.2,0.1c-0.1,0.1-0.1,0.3-0.1,0.4c-0.2,0.1,0,0.2,0,0.3
				c0,0,0,0.1,0,0.2c0,0.1,0,0.3,0.1,0.4c0.1,0.2,0.3,0.4,0.4,0.5C0.8-69.4,1-69,1.2-68.9c0.2,0,0.4-0.1,0.5-0.1
				c0.2,0,0.4,0,0.6-0.1c0.2-0.1,0.1-0.3,0.3-0.5c0.1-0.1,0.3,0,0.4-0.1c0.2-0.1,0.3-0.3,0.4-0.5c0-0.1,0-0.1,0-0.2
				c0-0.1,0.1-0.2,0.1-0.3c0-0.1-0.1-0.1-0.1-0.2c0-0.1,0-0.2,0-0.3c0-0.2,0-0.4-0.1-0.5c-0.4-0.7-1.2-0.9-2-0.8
				c-0.2,0-0.3,0.1-0.4,0.2c-0.2,0.1-0.1,0.2-0.3,0.2c-0.1,0-0.2,0.1-0.2,0.2C0.4-71.7,0.4-71.7,0.4-71.7
				C0.4-71.6,0.4-71.6,0.4-71.7"/>
		</g>
		<g>
			<path class="st2" d="M69.4-71.7c0,0.1,0,0.1,0,0.2c-0.1,0.1-0.1,0.1-0.2,0.1c-0.1,0.1-0.1,0.3-0.1,0.4c-0.2,0.1,0,0.2,0,0.3
				c0,0,0,0.1,0,0.2c0,0.1,0,0.3,0.1,0.4c0.1,0.2,0.3,0.4,0.4,0.5c0.2,0.1,0.4,0.6,0.6,0.6c0.2,0,0.4-0.1,0.5-0.1
				c0.2,0,0.4,0,0.6-0.1c0.2-0.1,0.1-0.3,0.3-0.5c0.1-0.1,0.3,0,0.4-0.1c0.2-0.1,0.3-0.3,0.4-0.5c0-0.1,0-0.1,0-0.2
				c0-0.1,0.1-0.2,0.1-0.3c0-0.1-0.1-0.1-0.1-0.2c0-0.1,0-0.2,0-0.3c0-0.2,0-0.4-0.1-0.5c-0.4-0.7-1.2-0.9-2-0.8
				c-0.2,0-0.3,0.1-0.4,0.2c-0.2,0.1-0.1,0.2-0.3,0.2c-0.1,0-0.2,0.1-0.2,0.2C69.4-71.7,69.4-71.7,69.4-71.7
				C69.4-71.6,69.4-71.6,69.4-71.7"/>
		</g>
		<path class="st2" d="M0.5-71.7c0,0.1,0,0.1,0,0.2c-0.1,0.1-0.1,0.1-0.2,0.1c-0.1,0.1-0.1,0.3-0.1,0.4c-0.2,0.1,0,0.2,0,0.3
			c0,0,0,0.1,0,0.2c0,0.1,0,0.3,0.1,0.4c0.1,0.2,0.3,0.4,0.4,0.5C0.9-69.4,1-69,1.3-68.9c0.2,0,0.4-0.1,0.5-0.1c0.2,0,0.4,0,0.6-0.1
			c0.2-0.1,0.1-0.3,0.3-0.5c0.1-0.1,0.3,0,0.4-0.1c0.2-0.1,0.3-0.3,0.4-0.5c0-0.1,0-0.1,0-0.2c0-0.1,0.1-0.2,0.1-0.3
			c0-0.1-0.1-0.1-0.1-0.2c0-0.1,0-0.2,0-0.3c0-0.2,0-0.4-0.1-0.5c-0.4-0.7-1.2-0.9-2-0.8c-0.2,0-0.3,0.1-0.4,0.2
			c-0.2,0.1-0.1,0.2-0.3,0.2c-0.1,0-0.2,0.1-0.2,0.2C0.5-71.7,0.5-71.7,0.5-71.7C0.5-71.6,0.5-71.6,0.5-71.7"/>
		<g>
			<g>
				<path class="st2" d="M69.4-64c0,0.1,0,0.1,0,0.2c-0.1,0.1-0.1,0.1-0.2,0.1c-0.1,0.1-0.1,0.3-0.1,0.4c-0.2,0.1,0,0.2,0,0.3
					c0,0,0,0.1,0,0.2c0,0.1,0,0.3,0.1,0.4c0.1,0.2,0.3,0.4,0.4,0.5c0.2,0.1,0.4,0.6,0.6,0.6c0.2,0,0.4-0.1,0.5-0.1
					c0.2,0,0.4,0,0.6-0.1c0.2-0.1,0.1-0.3,0.3-0.5c0.1-0.1,0.3,0,0.4-0.1c0.2-0.1,0.3-0.3,0.4-0.5c0-0.1,0-0.1,0-0.2
					c0-0.1,0.1-0.2,0.1-0.3c0-0.1-0.1-0.1-0.1-0.2c0-0.1,0-0.2,0-0.3c0-0.2,0-0.4-0.1-0.5c-0.4-0.7-1.2-0.9-2-0.8
					c-0.2,0-0.3,0.1-0.4,0.2c-0.2,0.1-0.1,0.2-0.3,0.2c-0.1,0-0.2,0.1-0.2,0.2C69.4-64,69.4-64.1,69.4-64C69.4-64,69.4-64,69.4-64"
					/>
				<path class="st2" d="M61.8-64c0,0.1,0,0.1,0,0.2c-0.1,0.1-0.1,0.1-0.2,0.1c-0.1,0.1-0.1,0.3-0.1,0.4c-0.2,0.1,0,0.2,0,0.3
					c0,0,0,0.1,0,0.2c0,0.1,0,0.3,0.1,0.4c0.1,0.2,0.3,0.4,0.4,0.5c0.2,0.1,0.4,0.6,0.6,0.6c0.2,0,0.4-0.1,0.5-0.1
					c0.2,0,0.4,0,0.6-0.1c0.2-0.1,0.1-0.3,0.3-0.5c0.1-0.1,0.3,0,0.4-0.1c0.2-0.1,0.3-0.3,0.4-0.5c0-0.1,0-0.1,0-0.2
					c0-0.1,0.1-0.2,0.1-0.3c0-0.1-0.1-0.1-0.1-0.2c0-0.1,0-0.2,0-0.3c0-0.2,0-0.4-0.1-0.5c-0.4-0.7-1.2-0.9-2-0.8
					c-0.2,0-0.3,0.1-0.4,0.2c-0.2,0.1-0.1,0.2-0.3,0.2c-0.1,0-0.2,0.1-0.2,0.2C61.8-64,61.8-64.1,61.8-64C61.8-64,61.8-64,61.8-64"
					/>
				<path class="st2" d="M54.1-64c0,0.1,0,0.1,0,0.2c-0.1,0.1-0.1,0.1-0.2,0.1c-0.1,0.1-0.1,0.3-0.1,0.4c-0.2,0.1,0,0.2,0,0.3
					c0,0,0,0.1,0,0.2c0,0.1,0,0.3,0.1,0.4c0.1,0.2,0.3,0.4,0.4,0.5c0.2,0.1,0.4,0.6,0.6,0.6c0.2,0,0.4-0.1,0.5-0.1
					c0.2,0,0.4,0,0.6-0.1c0.2-0.1,0.1-0.3,0.3-0.5c0.1-0.1,0.3,0,0.4-0.1c0.2-0.1,0.3-0.3,0.4-0.5c0-0.1,0-0.1,0-0.2
					c0-0.1,0.1-0.2,0.1-0.3c0-0.1-0.1-0.1-0.1-0.2c0-0.1,0-0.2,0-0.3c0-0.2,0-0.4-0.1-0.5c-0.4-0.7-1.2-0.9-2-0.8
					c-0.2,0-0.3,0.1-0.4,0.2c-0.2,0.1-0.1,0.2-0.3,0.2c-0.1,0-0.2,0.1-0.2,0.2C54.1-64,54.1-64.1,54.1-64C54.1-64,54.1-64,54.1-64"
					/>
				<path class="st2" d="M46.5-64c0,0.1,0,0.1,0,0.2c-0.1,0.1-0.1,0.1-0.2,0.1c-0.1,0.1-0.1,0.3-0.1,0.4c-0.2,0.1,0,0.2,0,0.3
					c0,0,0,0.1,0,0.2c0,0.1,0,0.3,0.1,0.4c0.1,0.2,0.3,0.4,0.4,0.5c0.2,0.1,0.4,0.6,0.6,0.6c0.2,0,0.4-0.1,0.5-0.1
					c0.2,0,0.4,0,0.6-0.1c0.2-0.1,0.1-0.3,0.3-0.5c0.1-0.1,0.3,0,0.4-0.1c0.2-0.1,0.3-0.3,0.4-0.5c0-0.1,0-0.1,0-0.2
					c0-0.1,0.1-0.2,0.1-0.3c0-0.1-0.1-0.1-0.1-0.2c0-0.1,0-0.2,0-0.3c0-0.2,0-0.4-0.1-0.5c-0.4-0.7-1.2-0.9-2-0.8
					c-0.2,0-0.3,0.1-0.4,0.2c-0.2,0.1-0.1,0.2-0.3,0.2c-0.1,0-0.2,0.1-0.2,0.2C46.5-64,46.5-64.1,46.5-64C46.5-64,46.5-64,46.5-64"
					/>
				<path class="st2" d="M38.8-64c0,0.1,0,0.1,0,0.2c-0.1,0.1-0.1,0.1-0.2,0.1c-0.1,0.1-0.1,0.3-0.1,0.4c-0.2,0.1,0,0.2,0,0.3
					c0,0,0,0.1,0,0.2c0,0.1,0,0.3,0.1,0.4c0.1,0.2,0.3,0.4,0.4,0.5c0.2,0.1,0.4,0.6,0.6,0.6c0.2,0,0.4-0.1,0.5-0.1
					c0.2,0,0.4,0,0.6-0.1c0.2-0.1,0.1-0.3,0.3-0.5c0.1-0.1,0.3,0,0.4-0.1c0.2-0.1,0.3-0.3,0.4-0.5c0-0.1,0-0.1,0-0.2
					c0-0.1,0.1-0.2,0.1-0.3c0-0.1-0.1-0.1-0.1-0.2c0-0.1,0-0.2,0-0.3c0-0.2,0-0.4-0.1-0.5c-0.4-0.7-1.2-0.9-2-0.8
					c-0.2,0-0.3,0.1-0.4,0.2c-0.2,0.1-0.1,0.2-0.3,0.2c-0.1,0-0.2,0.1-0.2,0.2C38.8-64,38.8-64.1,38.8-64C38.8-64,38.8-64,38.8-64"
					/>
				<path class="st2" d="M31.1-64c0,0.1,0,0.1,0,0.2c-0.1,0.1-0.1,0.1-0.2,0.1c-0.1,0.1-0.1,0.3-0.1,0.4c-0.2,0.1,0,0.2,0,0.3
					c0,0,0,0.1,0,0.2c0,0.1,0,0.3,0.1,0.4c0.1,0.2,0.3,0.4,0.4,0.5c0.2,0.1,0.4,0.6,0.6,0.6c0.2,0,0.4-0.1,0.5-0.1
					c0.2,0,0.4,0,0.6-0.1c0.2-0.1,0.1-0.3,0.3-0.5c0.1-0.1,0.3,0,0.4-0.1c0.2-0.1,0.3-0.3,0.4-0.5c0-0.1,0-0.1,0-0.2
					c0-0.1,0.1-0.2,0.1-0.3c0-0.1-0.1-0.1-0.1-0.2c0-0.1,0-0.2,0-0.3c0-0.2,0-0.4-0.1-0.5c-0.4-0.7-1.2-0.9-2-0.8
					c-0.2,0-0.3,0.1-0.4,0.2c-0.2,0.1-0.1,0.2-0.3,0.2c-0.1,0-0.2,0.1-0.2,0.2C31.1-64,31.1-64.1,31.1-64C31.1-64,31.1-64,31.1-64"
					/>
				<path class="st2" d="M23.5-64c0,0.1,0,0.1,0,0.2c-0.1,0.1-0.1,0.1-0.2,0.1c-0.1,0.1-0.1,0.3-0.1,0.4c-0.2,0.1,0,0.2,0,0.3
					c0,0,0,0.1,0,0.2c0,0.1,0,0.3,0.1,0.4c0.1,0.2,0.3,0.4,0.4,0.5c0.2,0.1,0.4,0.6,0.6,0.6c0.2,0,0.4-0.1,0.5-0.1
					c0.2,0,0.4,0,0.6-0.1c0.2-0.1,0.1-0.3,0.3-0.5c0.1-0.1,0.3,0,0.4-0.1c0.2-0.1,0.3-0.3,0.4-0.5c0-0.1,0-0.1,0-0.2
					c0-0.1,0.1-0.2,0.1-0.3c0-0.1-0.1-0.1-0.1-0.2c0-0.1,0-0.2,0-0.3c0-0.2,0-0.4-0.1-0.5c-0.4-0.7-1.2-0.9-2-0.8
					c-0.2,0-0.3,0.1-0.4,0.2c-0.2,0.1-0.1,0.2-0.3,0.2c-0.1,0-0.2,0.1-0.2,0.2C23.5-64,23.5-64.1,23.5-64C23.5-64,23.5-64,23.5-64"
					/>
				<path class="st2" d="M15.8-64c0,0.1,0,0.1,0,0.2c-0.1,0.1-0.1,0.1-0.2,0.1c-0.1,0.1-0.1,0.3-0.1,0.4c-0.2,0.1,0,0.2,0,0.3
					c0,0,0,0.1,0,0.2c0,0.1,0,0.3,0.1,0.4c0.1,0.2,0.3,0.4,0.4,0.5c0.2,0.1,0.4,0.6,0.6,0.6c0.2,0,0.4-0.1,0.5-0.1
					c0.2,0,0.4,0,0.6-0.1c0.2-0.1,0.1-0.3,0.3-0.5c0.1-0.1,0.3,0,0.4-0.1c0.2-0.1,0.3-0.3,0.4-0.5c0-0.1,0-0.1,0-0.2
					c0-0.1,0.1-0.2,0.1-0.3c0-0.1-0.1-0.1-0.1-0.2c0-0.1,0-0.2,0-0.3c0-0.2,0-0.4-0.1-0.5c-0.4-0.7-1.2-0.9-2-0.8
					c-0.2,0-0.3,0.1-0.4,0.2c-0.2,0.1-0.1,0.2-0.3,0.2c-0.1,0-0.2,0.1-0.2,0.2C15.8-64,15.8-64.1,15.8-64C15.8-64,15.8-64,15.8-64"
					/>
				<path class="st2" d="M8.2-64c0,0.1,0,0.1,0,0.2C8.1-63.7,8-63.7,8-63.7c-0.1,0.1-0.1,0.3-0.1,0.4c-0.2,0.1,0,0.2,0,0.3
					c0,0,0,0.1,0,0.2c0,0.1,0,0.3,0.1,0.4C8-62.2,8.2-62,8.3-61.9c0.2,0.1,0.4,0.6,0.6,0.6c0.2,0,0.4-0.1,0.5-0.1
					c0.2,0,0.4,0,0.6-0.1c0.2-0.1,0.1-0.3,0.3-0.5c0.1-0.1,0.3,0,0.4-0.1c0.2-0.1,0.3-0.3,0.4-0.5c0-0.1,0-0.1,0-0.2
					c0-0.1,0.1-0.2,0.1-0.3c0-0.1-0.1-0.1-0.1-0.2c0-0.1,0-0.2,0-0.3c0-0.2,0-0.4-0.1-0.5c-0.4-0.7-1.2-0.9-2-0.8
					c-0.2,0-0.3,0.1-0.4,0.2c-0.2,0.1-0.1,0.2-0.3,0.2c-0.1,0-0.2,0.1-0.2,0.2C8.2-64,8.2-64.1,8.2-64C8.1-64,8.1-64,8.2-64"/>
				<path class="st2" d="M0.5-64c0,0.1,0,0.1,0,0.2c-0.1,0.1-0.1,0.1-0.2,0.1c-0.1,0.1-0.1,0.3-0.1,0.4c-0.2,0.1,0,0.2,0,0.3
					c0,0,0,0.1,0,0.2c0,0.1,0,0.3,0.1,0.4c0.1,0.2,0.3,0.4,0.4,0.5c0.2,0.1,0.4,0.6,0.6,0.6c0.2,0,0.4-0.1,0.5-0.1
					c0.2,0,0.4,0,0.6-0.1c0.2-0.1,0.1-0.3,0.3-0.5C2.8-62,3-61.9,3.1-62c0.2-0.1,0.3-0.3,0.4-0.5c0-0.1,0-0.1,0-0.2
					c0-0.1,0.1-0.2,0.1-0.3c0-0.1-0.1-0.1-0.1-0.2c0-0.1,0-0.2,0-0.3c0-0.2,0-0.4-0.1-0.5c-0.4-0.7-1.2-0.9-2-0.8
					c-0.2,0-0.3,0.1-0.4,0.2c-0.2,0.1-0.1,0.2-0.3,0.2c-0.1,0-0.2,0.1-0.2,0.2C0.5-64,0.5-64.1,0.5-64C0.5-64,0.5-64,0.5-64"/>
			</g>
			<g>
				<path class="st2" d="M69.4-56.3c0,0.1,0,0.1,0,0.2c-0.1,0.1-0.1,0.1-0.2,0.1c-0.1,0.1-0.1,0.3-0.1,0.4c-0.2,0.1,0,0.2,0,0.3
					c0,0,0,0.1,0,0.2c0,0.1,0,0.3,0.1,0.4c0.1,0.2,0.3,0.4,0.4,0.5c0.2,0.1,0.4,0.6,0.6,0.6c0.2,0,0.4-0.1,0.5-0.1
					c0.2,0,0.4,0,0.6-0.1c0.2-0.1,0.1-0.3,0.3-0.5c0.1-0.1,0.3,0,0.4-0.1c0.2-0.1,0.3-0.3,0.4-0.5c0-0.1,0-0.1,0-0.2
					c0-0.1,0.1-0.2,0.1-0.3c0-0.1-0.1-0.1-0.1-0.2c0-0.1,0-0.2,0-0.3c0-0.2,0-0.4-0.1-0.5c-0.4-0.7-1.2-0.9-2-0.8
					c-0.2,0-0.3,0.1-0.4,0.2c-0.2,0.1-0.1,0.2-0.3,0.2c-0.1,0-0.2,0.1-0.2,0.2C69.4-56.4,69.4-56.4,69.4-56.3
					C69.4-56.3,69.4-56.3,69.4-56.3"/>
				<path class="st2" d="M61.8-56.3c0,0.1,0,0.1,0,0.2c-0.1,0.1-0.1,0.1-0.2,0.1c-0.1,0.1-0.1,0.3-0.1,0.4c-0.2,0.1,0,0.2,0,0.3
					c0,0,0,0.1,0,0.2c0,0.1,0,0.3,0.1,0.4c0.1,0.2,0.3,0.4,0.4,0.5c0.2,0.1,0.4,0.6,0.6,0.6c0.2,0,0.4-0.1,0.5-0.1
					c0.2,0,0.4,0,0.6-0.1c0.2-0.1,0.1-0.3,0.3-0.5c0.1-0.1,0.3,0,0.4-0.1c0.2-0.1,0.3-0.3,0.4-0.5c0-0.1,0-0.1,0-0.2
					c0-0.1,0.1-0.2,0.1-0.3c0-0.1-0.1-0.1-0.1-0.2c0-0.1,0-0.2,0-0.3c0-0.2,0-0.4-0.1-0.5c-0.4-0.7-1.2-0.9-2-0.8
					c-0.2,0-0.3,0.1-0.4,0.2c-0.2,0.1-0.1,0.2-0.3,0.2c-0.1,0-0.2,0.1-0.2,0.2C61.8-56.4,61.8-56.4,61.8-56.3
					C61.8-56.3,61.8-56.3,61.8-56.3"/>
				<path class="st2" d="M54.1-56.3c0,0.1,0,0.1,0,0.2C54-56.1,54-56.1,53.9-56c-0.1,0.1-0.1,0.3-0.1,0.4c-0.2,0.1,0,0.2,0,0.3
					c0,0,0,0.1,0,0.2c0,0.1,0,0.3,0.1,0.4c0.1,0.2,0.3,0.4,0.4,0.5c0.2,0.1,0.4,0.6,0.6,0.6c0.2,0,0.4-0.1,0.5-0.1
					c0.2,0,0.4,0,0.6-0.1c0.2-0.1,0.1-0.3,0.3-0.5c0.1-0.1,0.3,0,0.4-0.1c0.2-0.1,0.3-0.3,0.4-0.5c0-0.1,0-0.1,0-0.2
					c0-0.1,0.1-0.2,0.1-0.3c0-0.1-0.1-0.1-0.1-0.2c0-0.1,0-0.2,0-0.3c0-0.2,0-0.4-0.1-0.5c-0.4-0.7-1.2-0.9-2-0.8
					c-0.2,0-0.3,0.1-0.4,0.2c-0.2,0.1-0.1,0.2-0.3,0.2c-0.1,0-0.2,0.1-0.2,0.2C54.1-56.4,54.1-56.4,54.1-56.3
					C54.1-56.3,54.1-56.3,54.1-56.3"/>
				<path class="st2" d="M46.5-56.3c0,0.1,0,0.1,0,0.2c-0.1,0.1-0.1,0.1-0.2,0.1c-0.1,0.1-0.1,0.3-0.1,0.4c-0.2,0.1,0,0.2,0,0.3
					c0,0,0,0.1,0,0.2c0,0.1,0,0.3,0.1,0.4c0.1,0.2,0.3,0.4,0.4,0.5c0.2,0.1,0.4,0.6,0.6,0.6c0.2,0,0.4-0.1,0.5-0.1
					c0.2,0,0.4,0,0.6-0.1c0.2-0.1,0.1-0.3,0.3-0.5c0.1-0.1,0.3,0,0.4-0.1c0.2-0.1,0.3-0.3,0.4-0.5c0-0.1,0-0.1,0-0.2
					c0-0.1,0.1-0.2,0.1-0.3c0-0.1-0.1-0.1-0.1-0.2c0-0.1,0-0.2,0-0.3c0-0.2,0-0.4-0.1-0.5c-0.4-0.7-1.2-0.9-2-0.8
					c-0.2,0-0.3,0.1-0.4,0.2c-0.2,0.1-0.1,0.2-0.3,0.2c-0.1,0-0.2,0.1-0.2,0.2C46.5-56.4,46.5-56.4,46.5-56.3
					C46.5-56.3,46.5-56.3,46.5-56.3"/>
				<path class="st2" d="M38.8-56.3c0,0.1,0,0.1,0,0.2c-0.1,0.1-0.1,0.1-0.2,0.1c-0.1,0.1-0.1,0.3-0.1,0.4c-0.2,0.1,0,0.2,0,0.3
					c0,0,0,0.1,0,0.2c0,0.1,0,0.3,0.1,0.4c0.1,0.2,0.3,0.4,0.4,0.5c0.2,0.1,0.4,0.6,0.6,0.6c0.2,0,0.4-0.1,0.5-0.1
					c0.2,0,0.4,0,0.6-0.1c0.2-0.1,0.1-0.3,0.3-0.5c0.1-0.1,0.3,0,0.4-0.1c0.2-0.1,0.3-0.3,0.4-0.5c0-0.1,0-0.1,0-0.2
					c0-0.1,0.1-0.2,0.1-0.3c0-0.1-0.1-0.1-0.1-0.2c0-0.1,0-0.2,0-0.3c0-0.2,0-0.4-0.1-0.5c-0.4-0.7-1.2-0.9-2-0.8
					c-0.2,0-0.3,0.1-0.4,0.2c-0.2,0.1-0.1,0.2-0.3,0.2c-0.1,0-0.2,0.1-0.2,0.2C38.8-56.4,38.8-56.4,38.8-56.3
					C38.8-56.3,38.8-56.3,38.8-56.3"/>
				<path class="st2" d="M31.1-56.3c0,0.1,0,0.1,0,0.2c-0.1,0.1-0.1,0.1-0.2,0.1c-0.1,0.1-0.1,0.3-0.1,0.4c-0.2,0.1,0,0.2,0,0.3
					c0,0,0,0.1,0,0.2c0,0.1,0,0.3,0.1,0.4c0.1,0.2,0.3,0.4,0.4,0.5c0.2,0.1,0.4,0.6,0.6,0.6c0.2,0,0.4-0.1,0.5-0.1
					c0.2,0,0.4,0,0.6-0.1c0.2-0.1,0.1-0.3,0.3-0.5c0.1-0.1,0.3,0,0.4-0.1c0.2-0.1,0.3-0.3,0.4-0.5c0-0.1,0-0.1,0-0.2
					c0-0.1,0.1-0.2,0.1-0.3c0-0.1-0.1-0.1-0.1-0.2c0-0.1,0-0.2,0-0.3c0-0.2,0-0.4-0.1-0.5c-0.4-0.7-1.2-0.9-2-0.8
					c-0.2,0-0.3,0.1-0.4,0.2c-0.2,0.1-0.1,0.2-0.3,0.2c-0.1,0-0.2,0.1-0.2,0.2C31.1-56.4,31.1-56.4,31.1-56.3
					C31.1-56.3,31.1-56.3,31.1-56.3"/>
				<path class="st2" d="M23.5-56.3c0,0.1,0,0.1,0,0.2c-0.1,0.1-0.1,0.1-0.2,0.1c-0.1,0.1-0.1,0.3-0.1,0.4c-0.2,0.1,0,0.2,0,0.3
					c0,0,0,0.1,0,0.2c0,0.1,0,0.3,0.1,0.4c0.1,0.2,0.3,0.4,0.4,0.5c0.2,0.1,0.4,0.6,0.6,0.6c0.2,0,0.4-0.1,0.5-0.1
					c0.2,0,0.4,0,0.6-0.1c0.2-0.1,0.1-0.3,0.3-0.5c0.1-0.1,0.3,0,0.4-0.1c0.2-0.1,0.3-0.3,0.4-0.5c0-0.1,0-0.1,0-0.2
					c0-0.1,0.1-0.2,0.1-0.3c0-0.1-0.1-0.1-0.1-0.2c0-0.1,0-0.2,0-0.3c0-0.2,0-0.4-0.1-0.5c-0.4-0.7-1.2-0.9-2-0.8
					c-0.2,0-0.3,0.1-0.4,0.2c-0.2,0.1-0.1,0.2-0.3,0.2c-0.1,0-0.2,0.1-0.2,0.2C23.5-56.4,23.5-56.4,23.5-56.3
					C23.5-56.3,23.5-56.3,23.5-56.3"/>
				<path class="st2" d="M15.8-56.3c0,0.1,0,0.1,0,0.2c-0.1,0.1-0.1,0.1-0.2,0.1c-0.1,0.1-0.1,0.3-0.1,0.4c-0.2,0.1,0,0.2,0,0.3
					c0,0,0,0.1,0,0.2c0,0.1,0,0.3,0.1,0.4c0.1,0.2,0.3,0.4,0.4,0.5c0.2,0.1,0.4,0.6,0.6,0.6c0.2,0,0.4-0.1,0.5-0.1
					c0.2,0,0.4,0,0.6-0.1c0.2-0.1,0.1-0.3,0.3-0.5c0.1-0.1,0.3,0,0.4-0.1c0.2-0.1,0.3-0.3,0.4-0.5c0-0.1,0-0.1,0-0.2
					c0-0.1,0.1-0.2,0.1-0.3c0-0.1-0.1-0.1-0.1-0.2c0-0.1,0-0.2,0-0.3c0-0.2,0-0.4-0.1-0.5c-0.4-0.7-1.2-0.9-2-0.8
					c-0.2,0-0.3,0.1-0.4,0.2c-0.2,0.1-0.1,0.2-0.3,0.2c-0.1,0-0.2,0.1-0.2,0.2C15.8-56.4,15.8-56.4,15.8-56.3
					C15.8-56.3,15.8-56.3,15.8-56.3"/>
				<path class="st2" d="M8.2-56.3c0,0.1,0,0.1,0,0.2C8.1-56.1,8-56.1,8-56c-0.1,0.1-0.1,0.3-0.1,0.4c-0.2,0.1,0,0.2,0,0.3
					c0,0,0,0.1,0,0.2c0,0.1,0,0.3,0.1,0.4c0.1,0.2,0.3,0.4,0.4,0.5c0.2,0.1,0.4,0.6,0.6,0.6c0.2,0,0.4-0.1,0.5-0.1
					c0.2,0,0.4,0,0.6-0.1c0.2-0.1,0.1-0.3,0.3-0.5c0.1-0.1,0.3,0,0.4-0.1c0.2-0.1,0.3-0.3,0.4-0.5c0-0.1,0-0.1,0-0.2
					c0-0.1,0.1-0.2,0.1-0.3c0-0.1-0.1-0.1-0.1-0.2c0-0.1,0-0.2,0-0.3c0-0.2,0-0.4-0.1-0.5c-0.4-0.7-1.2-0.9-2-0.8
					c-0.2,0-0.3,0.1-0.4,0.2c-0.2,0.1-0.1,0.2-0.3,0.2c-0.1,0-0.2,0.1-0.2,0.2C8.2-56.4,8.2-56.4,8.2-56.3
					C8.1-56.3,8.1-56.3,8.2-56.3"/>
				<path class="st2" d="M0.5-56.3c0,0.1,0,0.1,0,0.2c-0.1,0.1-0.1,0.1-0.2,0.1c-0.1,0.1-0.1,0.3-0.1,0.4c-0.2,0.1,0,0.2,0,0.3
					c0,0,0,0.1,0,0.2c0,0.1,0,0.3,0.1,0.4c0.1,0.2,0.3,0.4,0.4,0.5c0.2,0.1,0.4,0.6,0.6,0.6c0.2,0,0.4-0.1,0.5-0.1
					c0.2,0,0.4,0,0.6-0.1c0.2-0.1,0.1-0.3,0.3-0.5c0.1-0.1,0.3,0,0.4-0.1c0.2-0.1,0.3-0.3,0.4-0.5c0-0.1,0-0.1,0-0.2
					c0-0.1,0.1-0.2,0.1-0.3c0-0.1-0.1-0.1-0.1-0.2c0-0.1,0-0.2,0-0.3c0-0.2,0-0.4-0.1-0.5c-0.4-0.7-1.2-0.9-2-0.8
					c-0.2,0-0.3,0.1-0.4,0.2c-0.2,0.1-0.1,0.2-0.3,0.2c-0.1,0-0.2,0.1-0.2,0.2C0.5-56.4,0.5-56.4,0.5-56.3
					C0.5-56.3,0.5-56.3,0.5-56.3"/>
			</g>
			<g>
				<path class="st2" d="M69.4-48.7c0,0.1,0,0.1,0,0.2c-0.1,0.1-0.1,0.1-0.2,0.1c-0.1,0.1-0.1,0.3-0.1,0.4c-0.2,0.1,0,0.2,0,0.3
					c0,0,0,0.1,0,0.2c0,0.1,0,0.3,0.1,0.4c0.1,0.2,0.3,0.4,0.4,0.5c0.2,0.1,0.4,0.6,0.6,0.6c0.2,0,0.4-0.1,0.5-0.1
					c0.2,0,0.4,0,0.6-0.1c0.2-0.1,0.1-0.3,0.3-0.5c0.1-0.1,0.3,0,0.4-0.1c0.2-0.1,0.3-0.3,0.4-0.5c0-0.1,0-0.1,0-0.2
					c0-0.1,0.1-0.2,0.1-0.3c0-0.1-0.1-0.1-0.1-0.2c0-0.1,0-0.2,0-0.3c0-0.2,0-0.4-0.1-0.5c-0.4-0.7-1.2-0.9-2-0.8
					c-0.2,0-0.3,0.1-0.4,0.2c-0.2,0.1-0.1,0.2-0.3,0.2c-0.1,0-0.2,0.1-0.2,0.2C69.4-48.7,69.4-48.8,69.4-48.7
					C69.4-48.7,69.4-48.7,69.4-48.7"/>
				<path class="st2" d="M61.8-48.7c0,0.1,0,0.1,0,0.2c-0.1,0.1-0.1,0.1-0.2,0.1c-0.1,0.1-0.1,0.3-0.1,0.4c-0.2,0.1,0,0.2,0,0.3
					c0,0,0,0.1,0,0.2c0,0.1,0,0.3,0.1,0.4c0.1,0.2,0.3,0.4,0.4,0.5c0.2,0.1,0.4,0.6,0.6,0.6c0.2,0,0.4-0.1,0.5-0.1
					c0.2,0,0.4,0,0.6-0.1c0.2-0.1,0.1-0.3,0.3-0.5c0.1-0.1,0.3,0,0.4-0.1c0.2-0.1,0.3-0.3,0.4-0.5c0-0.1,0-0.1,0-0.2
					c0-0.1,0.1-0.2,0.1-0.3c0-0.1-0.1-0.1-0.1-0.2c0-0.1,0-0.2,0-0.3c0-0.2,0-0.4-0.1-0.5c-0.4-0.7-1.2-0.9-2-0.8
					c-0.2,0-0.3,0.1-0.4,0.2c-0.2,0.1-0.1,0.2-0.3,0.2c-0.1,0-0.2,0.1-0.2,0.2C61.8-48.7,61.8-48.8,61.8-48.7
					C61.8-48.7,61.8-48.7,61.8-48.7"/>
				<path class="st2" d="M54.1-48.7c0,0.1,0,0.1,0,0.2c-0.1,0.1-0.1,0.1-0.2,0.1c-0.1,0.1-0.1,0.3-0.1,0.4c-0.2,0.1,0,0.2,0,0.3
					c0,0,0,0.1,0,0.2c0,0.1,0,0.3,0.1,0.4c0.1,0.2,0.3,0.4,0.4,0.5c0.2,0.1,0.4,0.6,0.6,0.6c0.2,0,0.4-0.1,0.5-0.1
					c0.2,0,0.4,0,0.6-0.1c0.2-0.1,0.1-0.3,0.3-0.5c0.1-0.1,0.3,0,0.4-0.1c0.2-0.1,0.3-0.3,0.4-0.5c0-0.1,0-0.1,0-0.2
					c0-0.1,0.1-0.2,0.1-0.3c0-0.1-0.1-0.1-0.1-0.2c0-0.1,0-0.2,0-0.3c0-0.2,0-0.4-0.1-0.5c-0.4-0.7-1.2-0.9-2-0.8
					c-0.2,0-0.3,0.1-0.4,0.2c-0.2,0.1-0.1,0.2-0.3,0.2c-0.1,0-0.2,0.1-0.2,0.2C54.1-48.7,54.1-48.8,54.1-48.7
					C54.1-48.7,54.1-48.7,54.1-48.7"/>
				<path class="st2" d="M46.5-48.7c0,0.1,0,0.1,0,0.2c-0.1,0.1-0.1,0.1-0.2,0.1c-0.1,0.1-0.1,0.3-0.1,0.4c-0.2,0.1,0,0.2,0,0.3
					c0,0,0,0.1,0,0.2c0,0.1,0,0.3,0.1,0.4c0.1,0.2,0.3,0.4,0.4,0.5c0.2,0.1,0.4,0.6,0.6,0.6c0.2,0,0.4-0.1,0.5-0.1
					c0.2,0,0.4,0,0.6-0.1c0.2-0.1,0.1-0.3,0.3-0.5c0.1-0.1,0.3,0,0.4-0.1c0.2-0.1,0.3-0.3,0.4-0.5c0-0.1,0-0.1,0-0.2
					c0-0.1,0.1-0.2,0.1-0.3c0-0.1-0.1-0.1-0.1-0.2c0-0.1,0-0.2,0-0.3c0-0.2,0-0.4-0.1-0.5c-0.4-0.7-1.2-0.9-2-0.8
					c-0.2,0-0.3,0.1-0.4,0.2c-0.2,0.1-0.1,0.2-0.3,0.2c-0.1,0-0.2,0.1-0.2,0.2C46.5-48.7,46.5-48.8,46.5-48.7
					C46.5-48.7,46.5-48.7,46.5-48.7"/>
				<path class="st2" d="M38.8-48.7c0,0.1,0,0.1,0,0.2c-0.1,0.1-0.1,0.1-0.2,0.1c-0.1,0.1-0.1,0.3-0.1,0.4c-0.2,0.1,0,0.2,0,0.3
					c0,0,0,0.1,0,0.2c0,0.1,0,0.3,0.1,0.4c0.1,0.2,0.3,0.4,0.4,0.5c0.2,0.1,0.4,0.6,0.6,0.6c0.2,0,0.4-0.1,0.5-0.1
					c0.2,0,0.4,0,0.6-0.1c0.2-0.1,0.1-0.3,0.3-0.5c0.1-0.1,0.3,0,0.4-0.1c0.2-0.1,0.3-0.3,0.4-0.5c0-0.1,0-0.1,0-0.2
					c0-0.1,0.1-0.2,0.1-0.3c0-0.1-0.1-0.1-0.1-0.2c0-0.1,0-0.2,0-0.3c0-0.2,0-0.4-0.1-0.5c-0.4-0.7-1.2-0.9-2-0.8
					c-0.2,0-0.3,0.1-0.4,0.2c-0.2,0.1-0.1,0.2-0.3,0.2c-0.1,0-0.2,0.1-0.2,0.2C38.8-48.7,38.8-48.8,38.8-48.7
					C38.8-48.7,38.8-48.7,38.8-48.7"/>
				<path class="st2" d="M31.1-48.7c0,0.1,0,0.1,0,0.2c-0.1,0.1-0.1,0.1-0.2,0.1c-0.1,0.1-0.1,0.3-0.1,0.4c-0.2,0.1,0,0.2,0,0.3
					c0,0,0,0.1,0,0.2c0,0.1,0,0.3,0.1,0.4c0.1,0.2,0.3,0.4,0.4,0.5c0.2,0.1,0.4,0.6,0.6,0.6c0.2,0,0.4-0.1,0.5-0.1
					c0.2,0,0.4,0,0.6-0.1c0.2-0.1,0.1-0.3,0.3-0.5c0.1-0.1,0.3,0,0.4-0.1c0.2-0.1,0.3-0.3,0.4-0.5c0-0.1,0-0.1,0-0.2
					c0-0.1,0.1-0.2,0.1-0.3c0-0.1-0.1-0.1-0.1-0.2c0-0.1,0-0.2,0-0.3c0-0.2,0-0.4-0.1-0.5c-0.4-0.7-1.2-0.9-2-0.8
					c-0.2,0-0.3,0.1-0.4,0.2c-0.2,0.1-0.1,0.2-0.3,0.2c-0.1,0-0.2,0.1-0.2,0.2C31.1-48.7,31.1-48.8,31.1-48.7
					C31.1-48.7,31.1-48.7,31.1-48.7"/>
				<path class="st2" d="M23.5-48.7c0,0.1,0,0.1,0,0.2c-0.1,0.1-0.1,0.1-0.2,0.1c-0.1,0.1-0.1,0.3-0.1,0.4c-0.2,0.1,0,0.2,0,0.3
					c0,0,0,0.1,0,0.2c0,0.1,0,0.3,0.1,0.4c0.1,0.2,0.3,0.4,0.4,0.5c0.2,0.1,0.4,0.6,0.6,0.6c0.2,0,0.4-0.1,0.5-0.1
					c0.2,0,0.4,0,0.6-0.1c0.2-0.1,0.1-0.3,0.3-0.5c0.1-0.1,0.3,0,0.4-0.1c0.2-0.1,0.3-0.3,0.4-0.5c0-0.1,0-0.1,0-0.2
					c0-0.1,0.1-0.2,0.1-0.3c0-0.1-0.1-0.1-0.1-0.2c0-0.1,0-0.2,0-0.3c0-0.2,0-0.4-0.1-0.5c-0.4-0.7-1.2-0.9-2-0.8
					c-0.2,0-0.3,0.1-0.4,0.2c-0.2,0.1-0.1,0.2-0.3,0.2c-0.1,0-0.2,0.1-0.2,0.2C23.5-48.7,23.5-48.8,23.5-48.7
					C23.5-48.7,23.5-48.7,23.5-48.7"/>
				<path class="st2" d="M15.8-48.7c0,0.1,0,0.1,0,0.2c-0.1,0.1-0.1,0.1-0.2,0.1c-0.1,0.1-0.1,0.3-0.1,0.4c-0.2,0.1,0,0.2,0,0.3
					c0,0,0,0.1,0,0.2c0,0.1,0,0.3,0.1,0.4c0.1,0.2,0.3,0.4,0.4,0.5c0.2,0.1,0.4,0.6,0.6,0.6c0.2,0,0.4-0.1,0.5-0.1
					c0.2,0,0.4,0,0.6-0.1c0.2-0.1,0.1-0.3,0.3-0.5c0.1-0.1,0.3,0,0.4-0.1c0.2-0.1,0.3-0.3,0.4-0.5c0-0.1,0-0.1,0-0.2
					c0-0.1,0.1-0.2,0.1-0.3c0-0.1-0.1-0.1-0.1-0.2c0-0.1,0-0.2,0-0.3c0-0.2,0-0.4-0.1-0.5c-0.4-0.7-1.2-0.9-2-0.8
					c-0.2,0-0.3,0.1-0.4,0.2c-0.2,0.1-0.1,0.2-0.3,0.2c-0.1,0-0.2,0.1-0.2,0.2C15.8-48.7,15.8-48.8,15.8-48.7
					C15.8-48.7,15.8-48.7,15.8-48.7"/>
				<path class="st2" d="M8.2-48.7c0,0.1,0,0.1,0,0.2C8.1-48.4,8-48.4,8-48.4c-0.1,0.1-0.1,0.3-0.1,0.4c-0.2,0.1,0,0.2,0,0.3
					c0,0,0,0.1,0,0.2c0,0.1,0,0.3,0.1,0.4c0.1,0.2,0.3,0.4,0.4,0.5C8.5-46.4,8.7-46,8.9-46c0.2,0,0.4-0.1,0.5-0.1
					c0.2,0,0.4,0,0.6-0.1c0.2-0.1,0.1-0.3,0.3-0.5c0.1-0.1,0.3,0,0.4-0.1c0.2-0.1,0.3-0.3,0.4-0.5c0-0.1,0-0.1,0-0.2
					c0-0.1,0.1-0.2,0.1-0.3c0-0.1-0.1-0.1-0.1-0.2c0-0.1,0-0.2,0-0.3c0-0.2,0-0.4-0.1-0.5c-0.4-0.7-1.2-0.9-2-0.8
					c-0.2,0-0.3,0.1-0.4,0.2c-0.2,0.1-0.1,0.2-0.3,0.2c-0.1,0-0.2,0.1-0.2,0.2C8.2-48.7,8.2-48.8,8.2-48.7
					C8.1-48.7,8.1-48.7,8.2-48.7"/>
				<path class="st2" d="M0.5-48.7c0,0.1,0,0.1,0,0.2c-0.1,0.1-0.1,0.1-0.2,0.1c-0.1,0.1-0.1,0.3-0.1,0.4c-0.2,0.1,0,0.2,0,0.3
					c0,0,0,0.1,0,0.2c0,0.1,0,0.3,0.1,0.4c0.1,0.2,0.3,0.4,0.4,0.5C0.9-46.4,1-46,1.3-46c0.2,0,0.4-0.1,0.5-0.1c0.2,0,0.4,0,0.6-0.1
					c0.2-0.1,0.1-0.3,0.3-0.5c0.1-0.1,0.3,0,0.4-0.1c0.2-0.1,0.3-0.3,0.4-0.5c0-0.1,0-0.1,0-0.2c0-0.1,0.1-0.2,0.1-0.3
					c0-0.1-0.1-0.1-0.1-0.2c0-0.1,0-0.2,0-0.3c0-0.2,0-0.4-0.1-0.5c-0.4-0.7-1.2-0.9-2-0.8c-0.2,0-0.3,0.1-0.4,0.2
					c-0.2,0.1-0.1,0.2-0.3,0.2c-0.1,0-0.2,0.1-0.2,0.2C0.5-48.7,0.5-48.8,0.5-48.7C0.5-48.7,0.5-48.7,0.5-48.7"/>
			</g>
			<g>
				<path class="st2" d="M69.4-41c0,0.1,0,0.1,0,0.2c-0.1,0.1-0.1,0.1-0.2,0.1c-0.1,0.1-0.1,0.3-0.1,0.4c-0.2,0.1,0,0.2,0,0.3
					c0,0,0,0.1,0,0.2c0,0.1,0,0.3,0.1,0.4c0.1,0.2,0.3,0.4,0.4,0.5c0.2,0.1,0.4,0.6,0.6,0.6c0.2,0,0.4-0.1,0.5-0.1
					c0.2,0,0.4,0,0.6-0.1c0.2-0.1,0.1-0.3,0.3-0.5c0.1-0.1,0.3,0,0.4-0.1c0.2-0.1,0.3-0.3,0.4-0.5c0-0.1,0-0.1,0-0.2
					c0-0.1,0.1-0.2,0.1-0.3c0-0.1-0.1-0.1-0.1-0.2c0-0.1,0-0.2,0-0.3c0-0.2,0-0.4-0.1-0.5c-0.4-0.7-1.2-0.9-2-0.8
					c-0.2,0-0.3,0.1-0.4,0.2c-0.2,0.1-0.1,0.2-0.3,0.2c-0.1,0-0.2,0.1-0.2,0.2C69.4-41.1,69.4-41.1,69.4-41C69.4-41,69.4-41,69.4-41
					"/>
				<path class="st2" d="M61.8-41c0,0.1,0,0.1,0,0.2c-0.1,0.1-0.1,0.1-0.2,0.1c-0.1,0.1-0.1,0.3-0.1,0.4c-0.2,0.1,0,0.2,0,0.3
					c0,0,0,0.1,0,0.2c0,0.1,0,0.3,0.1,0.4c0.1,0.2,0.3,0.4,0.4,0.5c0.2,0.1,0.4,0.6,0.6,0.6c0.2,0,0.4-0.1,0.5-0.1
					c0.2,0,0.4,0,0.6-0.1c0.2-0.1,0.1-0.3,0.3-0.5c0.1-0.1,0.3,0,0.4-0.1c0.2-0.1,0.3-0.3,0.4-0.5c0-0.1,0-0.1,0-0.2
					c0-0.1,0.1-0.2,0.1-0.3c0-0.1-0.1-0.1-0.1-0.2c0-0.1,0-0.2,0-0.3c0-0.2,0-0.4-0.1-0.5c-0.4-0.7-1.2-0.9-2-0.8
					c-0.2,0-0.3,0.1-0.4,0.2c-0.2,0.1-0.1,0.2-0.3,0.2c-0.1,0-0.2,0.1-0.2,0.2C61.8-41.1,61.8-41.1,61.8-41C61.8-41,61.8-41,61.8-41
					"/>
				<path class="st2" d="M54.1-41c0,0.1,0,0.1,0,0.2c-0.1,0.1-0.1,0.1-0.2,0.1c-0.1,0.1-0.1,0.3-0.1,0.4c-0.2,0.1,0,0.2,0,0.3
					c0,0,0,0.1,0,0.2c0,0.1,0,0.3,0.1,0.4c0.1,0.2,0.3,0.4,0.4,0.5c0.2,0.1,0.4,0.6,0.6,0.6c0.2,0,0.4-0.1,0.5-0.1
					c0.2,0,0.4,0,0.6-0.1c0.2-0.1,0.1-0.3,0.3-0.5c0.1-0.1,0.3,0,0.4-0.1c0.2-0.1,0.3-0.3,0.4-0.5c0-0.1,0-0.1,0-0.2
					c0-0.1,0.1-0.2,0.1-0.3c0-0.1-0.1-0.1-0.1-0.2c0-0.1,0-0.2,0-0.3c0-0.2,0-0.4-0.1-0.5c-0.4-0.7-1.2-0.9-2-0.8
					c-0.2,0-0.3,0.1-0.4,0.2c-0.2,0.1-0.1,0.2-0.3,0.2c-0.1,0-0.2,0.1-0.2,0.2C54.1-41.1,54.1-41.1,54.1-41C54.1-41,54.1-41,54.1-41
					"/>
				<path class="st2" d="M46.5-41c0,0.1,0,0.1,0,0.2c-0.1,0.1-0.1,0.1-0.2,0.1c-0.1,0.1-0.1,0.3-0.1,0.4c-0.2,0.1,0,0.2,0,0.3
					c0,0,0,0.1,0,0.2c0,0.1,0,0.3,0.1,0.4c0.1,0.2,0.3,0.4,0.4,0.5c0.2,0.1,0.4,0.6,0.6,0.6c0.2,0,0.4-0.1,0.5-0.1
					c0.2,0,0.4,0,0.6-0.1c0.2-0.1,0.1-0.3,0.3-0.5c0.1-0.1,0.3,0,0.4-0.1c0.2-0.1,0.3-0.3,0.4-0.5c0-0.1,0-0.1,0-0.2
					c0-0.1,0.1-0.2,0.1-0.3c0-0.1-0.1-0.1-0.1-0.2c0-0.1,0-0.2,0-0.3c0-0.2,0-0.4-0.1-0.5c-0.4-0.7-1.2-0.9-2-0.8
					c-0.2,0-0.3,0.1-0.4,0.2c-0.2,0.1-0.1,0.2-0.3,0.2c-0.1,0-0.2,0.1-0.2,0.2C46.5-41.1,46.5-41.1,46.5-41C46.5-41,46.5-41,46.5-41
					"/>
				<path class="st2" d="M38.8-41c0,0.1,0,0.1,0,0.2c-0.1,0.1-0.1,0.1-0.2,0.1c-0.1,0.1-0.1,0.3-0.1,0.4c-0.2,0.1,0,0.2,0,0.3
					c0,0,0,0.1,0,0.2c0,0.1,0,0.3,0.1,0.4c0.1,0.2,0.3,0.4,0.4,0.5c0.2,0.1,0.4,0.6,0.6,0.6c0.2,0,0.4-0.1,0.5-0.1
					c0.2,0,0.4,0,0.6-0.1c0.2-0.1,0.1-0.3,0.3-0.5c0.1-0.1,0.3,0,0.4-0.1c0.2-0.1,0.3-0.3,0.4-0.5c0-0.1,0-0.1,0-0.2
					c0-0.1,0.1-0.2,0.1-0.3c0-0.1-0.1-0.1-0.1-0.2c0-0.1,0-0.2,0-0.3c0-0.2,0-0.4-0.1-0.5c-0.4-0.7-1.2-0.9-2-0.8
					c-0.2,0-0.3,0.1-0.4,0.2c-0.2,0.1-0.1,0.2-0.3,0.2c-0.1,0-0.2,0.1-0.2,0.2C38.8-41.1,38.8-41.1,38.8-41C38.8-41,38.8-41,38.8-41
					"/>
				<path class="st2" d="M31.1-41c0,0.1,0,0.1,0,0.2c-0.1,0.1-0.1,0.1-0.2,0.1c-0.1,0.1-0.1,0.3-0.1,0.4c-0.2,0.1,0,0.2,0,0.3
					c0,0,0,0.1,0,0.2c0,0.1,0,0.3,0.1,0.4c0.1,0.2,0.3,0.4,0.4,0.5c0.2,0.1,0.4,0.6,0.6,0.6c0.2,0,0.4-0.1,0.5-0.1
					c0.2,0,0.4,0,0.6-0.1c0.2-0.1,0.1-0.3,0.3-0.5c0.1-0.1,0.3,0,0.4-0.1c0.2-0.1,0.3-0.3,0.4-0.5c0-0.1,0-0.1,0-0.2
					c0-0.1,0.1-0.2,0.1-0.3c0-0.1-0.1-0.1-0.1-0.2c0-0.1,0-0.2,0-0.3c0-0.2,0-0.4-0.1-0.5c-0.4-0.7-1.2-0.9-2-0.8
					c-0.2,0-0.3,0.1-0.4,0.2c-0.2,0.1-0.1,0.2-0.3,0.2c-0.1,0-0.2,0.1-0.2,0.2C31.1-41.1,31.1-41.1,31.1-41C31.1-41,31.1-41,31.1-41
					"/>
				<path class="st2" d="M23.5-41c0,0.1,0,0.1,0,0.2c-0.1,0.1-0.1,0.1-0.2,0.1c-0.1,0.1-0.1,0.3-0.1,0.4c-0.2,0.1,0,0.2,0,0.3
					c0,0,0,0.1,0,0.2c0,0.1,0,0.3,0.1,0.4c0.1,0.2,0.3,0.4,0.4,0.5c0.2,0.1,0.4,0.6,0.6,0.6c0.2,0,0.4-0.1,0.5-0.1
					c0.2,0,0.4,0,0.6-0.1c0.2-0.1,0.1-0.3,0.3-0.5c0.1-0.1,0.3,0,0.4-0.1c0.2-0.1,0.3-0.3,0.4-0.5c0-0.1,0-0.1,0-0.2
					c0-0.1,0.1-0.2,0.1-0.3c0-0.1-0.1-0.1-0.1-0.2c0-0.1,0-0.2,0-0.3c0-0.2,0-0.4-0.1-0.5c-0.4-0.7-1.2-0.9-2-0.8
					c-0.2,0-0.3,0.1-0.4,0.2c-0.2,0.1-0.1,0.2-0.3,0.2c-0.1,0-0.2,0.1-0.2,0.2C23.5-41.1,23.5-41.1,23.5-41C23.5-41,23.5-41,23.5-41
					"/>
				<path class="st2" d="M15.8-41c0,0.1,0,0.1,0,0.2c-0.1,0.1-0.1,0.1-0.2,0.1c-0.1,0.1-0.1,0.3-0.1,0.4c-0.2,0.1,0,0.2,0,0.3
					c0,0,0,0.1,0,0.2c0,0.1,0,0.3,0.1,0.4c0.1,0.2,0.3,0.4,0.4,0.5c0.2,0.1,0.4,0.6,0.6,0.6c0.2,0,0.4-0.1,0.5-0.1
					c0.2,0,0.4,0,0.6-0.1c0.2-0.1,0.1-0.3,0.3-0.5c0.1-0.1,0.3,0,0.4-0.1c0.2-0.1,0.3-0.3,0.4-0.5c0-0.1,0-0.1,0-0.2
					c0-0.1,0.1-0.2,0.1-0.3c0-0.1-0.1-0.1-0.1-0.2c0-0.1,0-0.2,0-0.3c0-0.2,0-0.4-0.1-0.5c-0.4-0.7-1.2-0.9-2-0.8
					c-0.2,0-0.3,0.1-0.4,0.2c-0.2,0.1-0.1,0.2-0.3,0.2c-0.1,0-0.2,0.1-0.2,0.2C15.8-41.1,15.8-41.1,15.8-41C15.8-41,15.8-41,15.8-41
					"/>
				<path class="st2" d="M8.2-41c0,0.1,0,0.1,0,0.2C8.1-40.8,8-40.8,8-40.7c-0.1,0.1-0.1,0.3-0.1,0.4c-0.2,0.1,0,0.2,0,0.3
					c0,0,0,0.1,0,0.2c0,0.1,0,0.3,0.1,0.4c0.1,0.2,0.3,0.4,0.4,0.5c0.2,0.1,0.4,0.6,0.6,0.6c0.2,0,0.4-0.1,0.5-0.1
					c0.2,0,0.4,0,0.6-0.1c0.2-0.1,0.1-0.3,0.3-0.5c0.1-0.1,0.3,0,0.4-0.1c0.2-0.1,0.3-0.3,0.4-0.5c0-0.1,0-0.1,0-0.2
					c0-0.1,0.1-0.2,0.1-0.3c0-0.1-0.1-0.1-0.1-0.2c0-0.1,0-0.2,0-0.3c0-0.2,0-0.4-0.1-0.5c-0.4-0.7-1.2-0.9-2-0.8
					c-0.2,0-0.3,0.1-0.4,0.2c-0.2,0.1-0.1,0.2-0.3,0.2c-0.1,0-0.2,0.1-0.2,0.2C8.2-41.1,8.2-41.1,8.2-41C8.1-41,8.1-41,8.2-41"/>
				<path class="st2" d="M0.5-41c0,0.1,0,0.1,0,0.2c-0.1,0.1-0.1,0.1-0.2,0.1c-0.1,0.1-0.1,0.3-0.1,0.4c-0.2,0.1,0,0.2,0,0.3
					c0,0,0,0.1,0,0.2c0,0.1,0,0.3,0.1,0.4c0.1,0.2,0.3,0.4,0.4,0.5c0.2,0.1,0.4,0.6,0.6,0.6c0.2,0,0.4-0.1,0.5-0.1
					c0.2,0,0.4,0,0.6-0.1c0.2-0.1,0.1-0.3,0.3-0.5C2.8-39,3-39,3.1-39c0.2-0.1,0.3-0.3,0.4-0.5c0-0.1,0-0.1,0-0.2
					c0-0.1,0.1-0.2,0.1-0.3c0-0.1-0.1-0.1-0.1-0.2c0-0.1,0-0.2,0-0.3c0-0.2,0-0.4-0.1-0.5c-0.4-0.7-1.2-0.9-2-0.8
					c-0.2,0-0.3,0.1-0.4,0.2c-0.2,0.1-0.1,0.2-0.3,0.2c-0.1,0-0.2,0.1-0.2,0.2C0.5-41.1,0.5-41.1,0.5-41C0.5-41,0.5-41,0.5-41"/>
			</g>
			<g>
				<path class="st2" d="M69.4-33.4c0,0.1,0,0.1,0,0.2c-0.1,0.1-0.1,0.1-0.2,0.1c-0.1,0.1-0.1,0.3-0.1,0.4c-0.2,0.1,0,0.2,0,0.3
					c0,0,0,0.1,0,0.2c0,0.1,0,0.3,0.1,0.4c0.1,0.2,0.3,0.4,0.4,0.5c0.2,0.1,0.4,0.6,0.6,0.6c0.2,0,0.4-0.1,0.5-0.1
					c0.2,0,0.4,0,0.6-0.1c0.2-0.1,0.1-0.3,0.3-0.5c0.1-0.1,0.3,0,0.4-0.1c0.2-0.1,0.3-0.3,0.4-0.5c0-0.1,0-0.1,0-0.2
					c0-0.1,0.1-0.2,0.1-0.3c0-0.1-0.1-0.1-0.1-0.2c0-0.1,0-0.2,0-0.3c0-0.2,0-0.4-0.1-0.5c-0.4-0.7-1.2-0.9-2-0.8
					c-0.2,0-0.3,0.1-0.4,0.2c-0.2,0.1-0.1,0.2-0.3,0.2c-0.1,0-0.2,0.1-0.2,0.2C69.4-33.4,69.4-33.5,69.4-33.4
					C69.4-33.4,69.4-33.4,69.4-33.4"/>
				<path class="st2" d="M61.8-33.4c0,0.1,0,0.1,0,0.2c-0.1,0.1-0.1,0.1-0.2,0.1c-0.1,0.1-0.1,0.3-0.1,0.4c-0.2,0.1,0,0.2,0,0.3
					c0,0,0,0.1,0,0.2c0,0.1,0,0.3,0.1,0.4c0.1,0.2,0.3,0.4,0.4,0.5c0.2,0.1,0.4,0.6,0.6,0.6c0.2,0,0.4-0.1,0.5-0.1
					c0.2,0,0.4,0,0.6-0.1c0.2-0.1,0.1-0.3,0.3-0.5c0.1-0.1,0.3,0,0.4-0.1c0.2-0.1,0.3-0.3,0.4-0.5c0-0.1,0-0.1,0-0.2
					c0-0.1,0.1-0.2,0.1-0.3c0-0.1-0.1-0.1-0.1-0.2c0-0.1,0-0.2,0-0.3c0-0.2,0-0.4-0.1-0.5c-0.4-0.7-1.2-0.9-2-0.8
					c-0.2,0-0.3,0.1-0.4,0.2c-0.2,0.1-0.1,0.2-0.3,0.2c-0.1,0-0.2,0.1-0.2,0.2C61.8-33.4,61.8-33.5,61.8-33.4
					C61.8-33.4,61.8-33.4,61.8-33.4"/>
				<path class="st2" d="M54.1-33.4c0,0.1,0,0.1,0,0.2c-0.1,0.1-0.1,0.1-0.2,0.1c-0.1,0.1-0.1,0.3-0.1,0.4c-0.2,0.1,0,0.2,0,0.3
					c0,0,0,0.1,0,0.2c0,0.1,0,0.3,0.1,0.4c0.1,0.2,0.3,0.4,0.4,0.5c0.2,0.1,0.4,0.6,0.6,0.6c0.2,0,0.4-0.1,0.5-0.1
					c0.2,0,0.4,0,0.6-0.1c0.2-0.1,0.1-0.3,0.3-0.5c0.1-0.1,0.3,0,0.4-0.1c0.2-0.1,0.3-0.3,0.4-0.5c0-0.1,0-0.1,0-0.2
					c0-0.1,0.1-0.2,0.1-0.3c0-0.1-0.1-0.1-0.1-0.2c0-0.1,0-0.2,0-0.3c0-0.2,0-0.4-0.1-0.5c-0.4-0.7-1.2-0.9-2-0.8
					c-0.2,0-0.3,0.1-0.4,0.2c-0.2,0.1-0.1,0.2-0.3,0.2c-0.1,0-0.2,0.1-0.2,0.2C54.1-33.4,54.1-33.5,54.1-33.4
					C54.1-33.4,54.1-33.4,54.1-33.4"/>
				<path class="st2" d="M46.5-33.4c0,0.1,0,0.1,0,0.2c-0.1,0.1-0.1,0.1-0.2,0.1c-0.1,0.1-0.1,0.3-0.1,0.4c-0.2,0.1,0,0.2,0,0.3
					c0,0,0,0.1,0,0.2c0,0.1,0,0.3,0.1,0.4c0.1,0.2,0.3,0.4,0.4,0.5c0.2,0.1,0.4,0.6,0.6,0.6c0.2,0,0.4-0.1,0.5-0.1
					c0.2,0,0.4,0,0.6-0.1c0.2-0.1,0.1-0.3,0.3-0.5c0.1-0.1,0.3,0,0.4-0.1c0.2-0.1,0.3-0.3,0.4-0.5c0-0.1,0-0.1,0-0.2
					c0-0.1,0.1-0.2,0.1-0.3c0-0.1-0.1-0.1-0.1-0.2c0-0.1,0-0.2,0-0.3c0-0.2,0-0.4-0.1-0.5c-0.4-0.7-1.2-0.9-2-0.8
					c-0.2,0-0.3,0.1-0.4,0.2c-0.2,0.1-0.1,0.2-0.3,0.2c-0.1,0-0.2,0.1-0.2,0.2C46.5-33.4,46.5-33.5,46.5-33.4
					C46.5-33.4,46.5-33.4,46.5-33.4"/>
				<path class="st2" d="M38.8-33.4c0,0.1,0,0.1,0,0.2c-0.1,0.1-0.1,0.1-0.2,0.1c-0.1,0.1-0.1,0.3-0.1,0.4c-0.2,0.1,0,0.2,0,0.3
					c0,0,0,0.1,0,0.2c0,0.1,0,0.3,0.1,0.4c0.1,0.2,0.3,0.4,0.4,0.5c0.2,0.1,0.4,0.6,0.6,0.6c0.2,0,0.4-0.1,0.5-0.1
					c0.2,0,0.4,0,0.6-0.1c0.2-0.1,0.1-0.3,0.3-0.5c0.1-0.1,0.3,0,0.4-0.1c0.2-0.1,0.3-0.3,0.4-0.5c0-0.1,0-0.1,0-0.2
					c0-0.1,0.1-0.2,0.1-0.3c0-0.1-0.1-0.1-0.1-0.2c0-0.1,0-0.2,0-0.3c0-0.2,0-0.4-0.1-0.5c-0.4-0.7-1.2-0.9-2-0.8
					c-0.2,0-0.3,0.1-0.4,0.2c-0.2,0.1-0.1,0.2-0.3,0.2c-0.1,0-0.2,0.1-0.2,0.2C38.8-33.4,38.8-33.5,38.8-33.4
					C38.8-33.4,38.8-33.4,38.8-33.4"/>
				<path class="st2" d="M31.1-33.4c0,0.1,0,0.1,0,0.2c-0.1,0.1-0.1,0.1-0.2,0.1c-0.1,0.1-0.1,0.3-0.1,0.4c-0.2,0.1,0,0.2,0,0.3
					c0,0,0,0.1,0,0.2c0,0.1,0,0.3,0.1,0.4c0.1,0.2,0.3,0.4,0.4,0.5c0.2,0.1,0.4,0.6,0.6,0.6c0.2,0,0.4-0.1,0.5-0.1
					c0.2,0,0.4,0,0.6-0.1c0.2-0.1,0.1-0.3,0.3-0.5c0.1-0.1,0.3,0,0.4-0.1c0.2-0.1,0.3-0.3,0.4-0.5c0-0.1,0-0.1,0-0.2
					c0-0.1,0.1-0.2,0.1-0.3c0-0.1-0.1-0.1-0.1-0.2c0-0.1,0-0.2,0-0.3c0-0.2,0-0.4-0.1-0.5c-0.4-0.7-1.2-0.9-2-0.8
					c-0.2,0-0.3,0.1-0.4,0.2c-0.2,0.1-0.1,0.2-0.3,0.2c-0.1,0-0.2,0.1-0.2,0.2C31.1-33.4,31.1-33.5,31.1-33.4
					C31.1-33.4,31.1-33.4,31.1-33.4"/>
				<path class="st2" d="M23.5-33.4c0,0.1,0,0.1,0,0.2c-0.1,0.1-0.1,0.1-0.2,0.1c-0.1,0.1-0.1,0.3-0.1,0.4c-0.2,0.1,0,0.2,0,0.3
					c0,0,0,0.1,0,0.2c0,0.1,0,0.3,0.1,0.4c0.1,0.2,0.3,0.4,0.4,0.5c0.2,0.1,0.4,0.6,0.6,0.6c0.2,0,0.4-0.1,0.5-0.1
					c0.2,0,0.4,0,0.6-0.1c0.2-0.1,0.1-0.3,0.3-0.5c0.1-0.1,0.3,0,0.4-0.1c0.2-0.1,0.3-0.3,0.4-0.5c0-0.1,0-0.1,0-0.2
					c0-0.1,0.1-0.2,0.1-0.3c0-0.1-0.1-0.1-0.1-0.2c0-0.1,0-0.2,0-0.3c0-0.2,0-0.4-0.1-0.5c-0.4-0.7-1.2-0.9-2-0.8
					c-0.2,0-0.3,0.1-0.4,0.2c-0.2,0.1-0.1,0.2-0.3,0.2c-0.1,0-0.2,0.1-0.2,0.2C23.5-33.4,23.5-33.5,23.5-33.4
					C23.5-33.4,23.5-33.4,23.5-33.4"/>
				<path class="st2" d="M15.8-33.4c0,0.1,0,0.1,0,0.2c-0.1,0.1-0.1,0.1-0.2,0.1c-0.1,0.1-0.1,0.3-0.1,0.4c-0.2,0.1,0,0.2,0,0.3
					c0,0,0,0.1,0,0.2c0,0.1,0,0.3,0.1,0.4c0.1,0.2,0.3,0.4,0.4,0.5c0.2,0.1,0.4,0.6,0.6,0.6c0.2,0,0.4-0.1,0.5-0.1
					c0.2,0,0.4,0,0.6-0.1c0.2-0.1,0.1-0.3,0.3-0.5c0.1-0.1,0.3,0,0.4-0.1c0.2-0.1,0.3-0.3,0.4-0.5c0-0.1,0-0.1,0-0.2
					c0-0.1,0.1-0.2,0.1-0.3c0-0.1-0.1-0.1-0.1-0.2c0-0.1,0-0.2,0-0.3c0-0.2,0-0.4-0.1-0.5c-0.4-0.7-1.2-0.9-2-0.8
					c-0.2,0-0.3,0.1-0.4,0.2c-0.2,0.1-0.1,0.2-0.3,0.2c-0.1,0-0.2,0.1-0.2,0.2C15.8-33.4,15.8-33.5,15.8-33.4
					C15.8-33.4,15.8-33.4,15.8-33.4"/>
				<path class="st2" d="M8.2-33.4c0,0.1,0,0.1,0,0.2C8.1-33.1,8-33.1,8-33.1c-0.1,0.1-0.1,0.3-0.1,0.4c-0.2,0.1,0,0.2,0,0.3
					c0,0,0,0.1,0,0.2c0,0.1,0,0.3,0.1,0.4c0.1,0.2,0.3,0.4,0.4,0.5c0.2,0.1,0.4,0.6,0.6,0.6c0.2,0,0.4-0.1,0.5-0.1
					c0.2,0,0.4,0,0.6-0.1c0.2-0.1,0.1-0.3,0.3-0.5c0.1-0.1,0.3,0,0.4-0.1c0.2-0.1,0.3-0.3,0.4-0.5c0-0.1,0-0.1,0-0.2
					c0-0.1,0.1-0.2,0.1-0.3c0-0.1-0.1-0.1-0.1-0.2c0-0.1,0-0.2,0-0.3c0-0.2,0-0.4-0.1-0.5c-0.4-0.7-1.2-0.9-2-0.8
					c-0.2,0-0.3,0.1-0.4,0.2c-0.2,0.1-0.1,0.2-0.3,0.2c-0.1,0-0.2,0.1-0.2,0.2C8.2-33.4,8.2-33.5,8.2-33.4
					C8.1-33.4,8.1-33.4,8.2-33.4"/>
				<path class="st2" d="M0.5-33.4c0,0.1,0,0.1,0,0.2c-0.1,0.1-0.1,0.1-0.2,0.1c-0.1,0.1-0.1,0.3-0.1,0.4c-0.2,0.1,0,0.2,0,0.3
					c0,0,0,0.1,0,0.2c0,0.1,0,0.3,0.1,0.4c0.1,0.2,0.3,0.4,0.4,0.5c0.2,0.1,0.4,0.6,0.6,0.6c0.2,0,0.4-0.1,0.5-0.1
					c0.2,0,0.4,0,0.6-0.1c0.2-0.1,0.1-0.3,0.3-0.5c0.1-0.1,0.3,0,0.4-0.1c0.2-0.1,0.3-0.3,0.4-0.5c0-0.1,0-0.1,0-0.2
					c0-0.1,0.1-0.2,0.1-0.3c0-0.1-0.1-0.1-0.1-0.2c0-0.1,0-0.2,0-0.3c0-0.2,0-0.4-0.1-0.5c-0.4-0.7-1.2-0.9-2-0.8
					c-0.2,0-0.3,0.1-0.4,0.2c-0.2,0.1-0.1,0.2-0.3,0.2c-0.1,0-0.2,0.1-0.2,0.2C0.5-33.4,0.5-33.5,0.5-33.4
					C0.5-33.4,0.5-33.4,0.5-33.4"/>
			</g>
			<g>
				<path class="st2" d="M69.4-25.7c0,0.1,0,0.1,0,0.2c-0.1,0.1-0.1,0.1-0.2,0.1c-0.1,0.1-0.1,0.3-0.1,0.4c-0.2,0.1,0,0.2,0,0.3
					c0,0,0,0.1,0,0.2c0,0.1,0,0.3,0.1,0.4c0.1,0.2,0.3,0.4,0.4,0.5c0.2,0.1,0.4,0.6,0.6,0.6c0.2,0,0.4-0.1,0.5-0.1
					c0.2,0,0.4,0,0.6-0.1c0.2-0.1,0.1-0.3,0.3-0.5c0.1-0.1,0.3,0,0.4-0.1c0.2-0.1,0.3-0.3,0.4-0.5c0-0.1,0-0.1,0-0.2
					c0-0.1,0.1-0.2,0.1-0.3c0-0.1-0.1-0.1-0.1-0.2c0-0.1,0-0.2,0-0.3c0-0.2,0-0.4-0.1-0.5c-0.4-0.7-1.2-0.9-2-0.8
					c-0.2,0-0.3,0.1-0.4,0.2c-0.2,0.1-0.1,0.2-0.3,0.2c-0.1,0-0.2,0.1-0.2,0.2C69.4-25.8,69.4-25.8,69.4-25.7
					C69.4-25.7,69.4-25.7,69.4-25.7"/>
				<path class="st2" d="M61.8-25.7c0,0.1,0,0.1,0,0.2c-0.1,0.1-0.1,0.1-0.2,0.1c-0.1,0.1-0.1,0.3-0.1,0.4c-0.2,0.1,0,0.2,0,0.3
					c0,0,0,0.1,0,0.2c0,0.1,0,0.3,0.1,0.4c0.1,0.2,0.3,0.4,0.4,0.5c0.2,0.1,0.4,0.6,0.6,0.6c0.2,0,0.4-0.1,0.5-0.1
					c0.2,0,0.4,0,0.6-0.1c0.2-0.1,0.1-0.3,0.3-0.5c0.1-0.1,0.3,0,0.4-0.1c0.2-0.1,0.3-0.3,0.4-0.5c0-0.1,0-0.1,0-0.2
					c0-0.1,0.1-0.2,0.1-0.3c0-0.1-0.1-0.1-0.1-0.2c0-0.1,0-0.2,0-0.3c0-0.2,0-0.4-0.1-0.5c-0.4-0.7-1.2-0.9-2-0.8
					c-0.2,0-0.3,0.1-0.4,0.2c-0.2,0.1-0.1,0.2-0.3,0.2c-0.1,0-0.2,0.1-0.2,0.2C61.8-25.8,61.8-25.8,61.8-25.7
					C61.8-25.7,61.8-25.7,61.8-25.7"/>
				<path class="st2" d="M54.1-25.7c0,0.1,0,0.1,0,0.2c-0.1,0.1-0.1,0.1-0.2,0.1c-0.1,0.1-0.1,0.3-0.1,0.4c-0.2,0.1,0,0.2,0,0.3
					c0,0,0,0.1,0,0.2c0,0.1,0,0.3,0.1,0.4c0.1,0.2,0.3,0.4,0.4,0.5c0.2,0.1,0.4,0.6,0.6,0.6c0.2,0,0.4-0.1,0.5-0.1
					c0.2,0,0.4,0,0.6-0.1c0.2-0.1,0.1-0.3,0.3-0.5c0.1-0.1,0.3,0,0.4-0.1c0.2-0.1,0.3-0.3,0.4-0.5c0-0.1,0-0.1,0-0.2
					c0-0.1,0.1-0.2,0.1-0.3c0-0.1-0.1-0.1-0.1-0.2c0-0.1,0-0.2,0-0.3c0-0.2,0-0.4-0.1-0.5c-0.4-0.7-1.2-0.9-2-0.8
					c-0.2,0-0.3,0.1-0.4,0.2c-0.2,0.1-0.1,0.2-0.3,0.2c-0.1,0-0.2,0.1-0.2,0.2C54.1-25.8,54.1-25.8,54.1-25.7
					C54.1-25.7,54.1-25.7,54.1-25.7"/>
				<path class="st2" d="M46.5-25.7c0,0.1,0,0.1,0,0.2c-0.1,0.1-0.1,0.1-0.2,0.1c-0.1,0.1-0.1,0.3-0.1,0.4c-0.2,0.1,0,0.2,0,0.3
					c0,0,0,0.1,0,0.2c0,0.1,0,0.3,0.1,0.4c0.1,0.2,0.3,0.4,0.4,0.5c0.2,0.1,0.4,0.6,0.6,0.6c0.2,0,0.4-0.1,0.5-0.1
					c0.2,0,0.4,0,0.6-0.1c0.2-0.1,0.1-0.3,0.3-0.5c0.1-0.1,0.3,0,0.4-0.1c0.2-0.1,0.3-0.3,0.4-0.5c0-0.1,0-0.1,0-0.2
					c0-0.1,0.1-0.2,0.1-0.3c0-0.1-0.1-0.1-0.1-0.2c0-0.1,0-0.2,0-0.3c0-0.2,0-0.4-0.1-0.5c-0.4-0.7-1.2-0.9-2-0.8
					c-0.2,0-0.3,0.1-0.4,0.2c-0.2,0.1-0.1,0.2-0.3,0.2c-0.1,0-0.2,0.1-0.2,0.2C46.5-25.8,46.5-25.8,46.5-25.7
					C46.5-25.7,46.5-25.7,46.5-25.7"/>
				<path class="st2" d="M38.8-25.7c0,0.1,0,0.1,0,0.2c-0.1,0.1-0.1,0.1-0.2,0.1c-0.1,0.1-0.1,0.3-0.1,0.4c-0.2,0.1,0,0.2,0,0.3
					c0,0,0,0.1,0,0.2c0,0.1,0,0.3,0.1,0.4c0.1,0.2,0.3,0.4,0.4,0.5c0.2,0.1,0.4,0.6,0.6,0.6c0.2,0,0.4-0.1,0.5-0.1
					c0.2,0,0.4,0,0.6-0.1c0.2-0.1,0.1-0.3,0.3-0.5c0.1-0.1,0.3,0,0.4-0.1c0.2-0.1,0.3-0.3,0.4-0.5c0-0.1,0-0.1,0-0.2
					c0-0.1,0.1-0.2,0.1-0.3c0-0.1-0.1-0.1-0.1-0.2c0-0.1,0-0.2,0-0.3c0-0.2,0-0.4-0.1-0.5c-0.4-0.7-1.2-0.9-2-0.8
					c-0.2,0-0.3,0.1-0.4,0.2c-0.2,0.1-0.1,0.2-0.3,0.2c-0.1,0-0.2,0.1-0.2,0.2C38.8-25.8,38.8-25.8,38.8-25.7
					C38.8-25.7,38.8-25.7,38.8-25.7"/>
				<path class="st2" d="M31.1-25.7c0,0.1,0,0.1,0,0.2c-0.1,0.1-0.1,0.1-0.2,0.1c-0.1,0.1-0.1,0.3-0.1,0.4c-0.2,0.1,0,0.2,0,0.3
					c0,0,0,0.1,0,0.2c0,0.1,0,0.3,0.1,0.4c0.1,0.2,0.3,0.4,0.4,0.5c0.2,0.1,0.4,0.6,0.6,0.6c0.2,0,0.4-0.1,0.5-0.1
					c0.2,0,0.4,0,0.6-0.1c0.2-0.1,0.1-0.3,0.3-0.5c0.1-0.1,0.3,0,0.4-0.1c0.2-0.1,0.3-0.3,0.4-0.5c0-0.1,0-0.1,0-0.2
					c0-0.1,0.1-0.2,0.1-0.3c0-0.1-0.1-0.1-0.1-0.2c0-0.1,0-0.2,0-0.3c0-0.2,0-0.4-0.1-0.5c-0.4-0.7-1.2-0.9-2-0.8
					c-0.2,0-0.3,0.1-0.4,0.2c-0.2,0.1-0.1,0.2-0.3,0.2c-0.1,0-0.2,0.1-0.2,0.2C31.1-25.8,31.1-25.8,31.1-25.7
					C31.1-25.7,31.1-25.7,31.1-25.7"/>
				<path class="st2" d="M23.5-25.7c0,0.1,0,0.1,0,0.2c-0.1,0.1-0.1,0.1-0.2,0.1c-0.1,0.1-0.1,0.3-0.1,0.4c-0.2,0.1,0,0.2,0,0.3
					c0,0,0,0.1,0,0.2c0,0.1,0,0.3,0.1,0.4c0.1,0.2,0.3,0.4,0.4,0.5c0.2,0.1,0.4,0.6,0.6,0.6c0.2,0,0.4-0.1,0.5-0.1
					c0.2,0,0.4,0,0.6-0.1c0.2-0.1,0.1-0.3,0.3-0.5c0.1-0.1,0.3,0,0.4-0.1c0.2-0.1,0.3-0.3,0.4-0.5c0-0.1,0-0.1,0-0.2
					c0-0.1,0.1-0.2,0.1-0.3c0-0.1-0.1-0.1-0.1-0.2c0-0.1,0-0.2,0-0.3c0-0.2,0-0.4-0.1-0.5c-0.4-0.7-1.2-0.9-2-0.8
					c-0.2,0-0.3,0.1-0.4,0.2c-0.2,0.1-0.1,0.2-0.3,0.2c-0.1,0-0.2,0.1-0.2,0.2C23.5-25.8,23.5-25.8,23.5-25.7
					C23.5-25.7,23.5-25.7,23.5-25.7"/>
				<path class="st2" d="M15.8-25.7c0,0.1,0,0.1,0,0.2c-0.1,0.1-0.1,0.1-0.2,0.1c-0.1,0.1-0.1,0.3-0.1,0.4c-0.2,0.1,0,0.2,0,0.3
					c0,0,0,0.1,0,0.2c0,0.1,0,0.3,0.1,0.4c0.1,0.2,0.3,0.4,0.4,0.5c0.2,0.1,0.4,0.6,0.6,0.6c0.2,0,0.4-0.1,0.5-0.1
					c0.2,0,0.4,0,0.6-0.1c0.2-0.1,0.1-0.3,0.3-0.5c0.1-0.1,0.3,0,0.4-0.1c0.2-0.1,0.3-0.3,0.4-0.5c0-0.1,0-0.1,0-0.2
					c0-0.1,0.1-0.2,0.1-0.3c0-0.1-0.1-0.1-0.1-0.2c0-0.1,0-0.2,0-0.3c0-0.2,0-0.4-0.1-0.5c-0.4-0.7-1.2-0.9-2-0.8
					c-0.2,0-0.3,0.1-0.4,0.2c-0.2,0.1-0.1,0.2-0.3,0.2c-0.1,0-0.2,0.1-0.2,0.2C15.8-25.8,15.8-25.8,15.8-25.7
					C15.8-25.7,15.8-25.7,15.8-25.7"/>
				<path class="st2" d="M8.2-25.7c0,0.1,0,0.1,0,0.2C8.1-25.4,8-25.5,8-25.4c-0.1,0.1-0.1,0.3-0.1,0.4c-0.2,0.1,0,0.2,0,0.3
					c0,0,0,0.1,0,0.2c0,0.1,0,0.3,0.1,0.4C8-24,8.2-23.8,8.3-23.6c0.2,0.1,0.4,0.6,0.6,0.6c0.2,0,0.4-0.1,0.5-0.1
					c0.2,0,0.4,0,0.6-0.1c0.2-0.1,0.1-0.3,0.3-0.5c0.1-0.1,0.3,0,0.4-0.1c0.2-0.1,0.3-0.3,0.4-0.5c0-0.1,0-0.1,0-0.2
					c0-0.1,0.1-0.2,0.1-0.3c0-0.1-0.1-0.1-0.1-0.2c0-0.1,0-0.2,0-0.3c0-0.2,0-0.4-0.1-0.5c-0.4-0.7-1.2-0.9-2-0.8
					c-0.2,0-0.3,0.1-0.4,0.2c-0.2,0.1-0.1,0.2-0.3,0.2c-0.1,0-0.2,0.1-0.2,0.2C8.2-25.8,8.2-25.8,8.2-25.7
					C8.1-25.7,8.1-25.7,8.2-25.7"/>
				<path class="st2" d="M0.5-25.7c0,0.1,0,0.1,0,0.2c-0.1,0.1-0.1,0.1-0.2,0.1c-0.1,0.1-0.1,0.3-0.1,0.4c-0.2,0.1,0,0.2,0,0.3
					c0,0,0,0.1,0,0.2c0,0.1,0,0.3,0.1,0.4c0.1,0.2,0.3,0.4,0.4,0.5C0.9-23.5,1-23.1,1.3-23c0.2,0,0.4-0.1,0.5-0.1
					c0.2,0,0.4,0,0.6-0.1c0.2-0.1,0.1-0.3,0.3-0.5c0.1-0.1,0.3,0,0.4-0.1c0.2-0.1,0.3-0.3,0.4-0.5c0-0.1,0-0.1,0-0.2
					c0-0.1,0.1-0.2,0.1-0.3c0-0.1-0.1-0.1-0.1-0.2c0-0.1,0-0.2,0-0.3c0-0.2,0-0.4-0.1-0.5c-0.4-0.7-1.2-0.9-2-0.8
					c-0.2,0-0.3,0.1-0.4,0.2c-0.2,0.1-0.1,0.2-0.3,0.2c-0.1,0-0.2,0.1-0.2,0.2C0.5-25.8,0.5-25.8,0.5-25.7
					C0.5-25.7,0.5-25.7,0.5-25.7"/>
			</g>
			<g>
				<path class="st2" d="M69.4-18.1c0,0.1,0,0.1,0,0.2c-0.1,0.1-0.1,0.1-0.2,0.1c-0.1,0.1-0.1,0.3-0.1,0.4c-0.2,0.1,0,0.2,0,0.3
					c0,0,0,0.1,0,0.2c0,0.1,0,0.3,0.1,0.4c0.1,0.2,0.3,0.4,0.4,0.5c0.2,0.1,0.4,0.6,0.6,0.6c0.2,0,0.4-0.1,0.5-0.1
					c0.2,0,0.4,0,0.6-0.1c0.2-0.1,0.1-0.3,0.3-0.5c0.1-0.1,0.3,0,0.4-0.1c0.2-0.1,0.3-0.3,0.4-0.5c0-0.1,0-0.1,0-0.2
					c0-0.1,0.1-0.2,0.1-0.3c0-0.1-0.1-0.1-0.1-0.2c0-0.1,0-0.2,0-0.3c0-0.2,0-0.4-0.1-0.5c-0.4-0.7-1.2-0.9-2-0.8
					c-0.2,0-0.3,0.1-0.4,0.2c-0.2,0.1-0.1,0.2-0.3,0.2c-0.1,0-0.2,0.1-0.2,0.2C69.4-18.1,69.4-18.2,69.4-18.1
					C69.4-18,69.4-18.1,69.4-18.1"/>
				<path class="st2" d="M61.8-18.1c0,0.1,0,0.1,0,0.2c-0.1,0.1-0.1,0.1-0.2,0.1c-0.1,0.1-0.1,0.3-0.1,0.4c-0.2,0.1,0,0.2,0,0.3
					c0,0,0,0.1,0,0.2c0,0.1,0,0.3,0.1,0.4c0.1,0.2,0.3,0.4,0.4,0.5c0.2,0.1,0.4,0.6,0.6,0.6c0.2,0,0.4-0.1,0.5-0.1
					c0.2,0,0.4,0,0.6-0.1c0.2-0.1,0.1-0.3,0.3-0.5c0.1-0.1,0.3,0,0.4-0.1c0.2-0.1,0.3-0.3,0.4-0.5c0-0.1,0-0.1,0-0.2
					c0-0.1,0.1-0.2,0.1-0.3c0-0.1-0.1-0.1-0.1-0.2c0-0.1,0-0.2,0-0.3c0-0.2,0-0.4-0.1-0.5c-0.4-0.7-1.2-0.9-2-0.8
					c-0.2,0-0.3,0.1-0.4,0.2c-0.2,0.1-0.1,0.2-0.3,0.2c-0.1,0-0.2,0.1-0.2,0.2C61.8-18.1,61.8-18.2,61.8-18.1
					C61.8-18,61.8-18.1,61.8-18.1"/>
				<path class="st2" d="M54.1-18.1c0,0.1,0,0.1,0,0.2c-0.1,0.1-0.1,0.1-0.2,0.1c-0.1,0.1-0.1,0.3-0.1,0.4c-0.2,0.1,0,0.2,0,0.3
					c0,0,0,0.1,0,0.2c0,0.1,0,0.3,0.1,0.4c0.1,0.2,0.3,0.4,0.4,0.5c0.2,0.1,0.4,0.6,0.6,0.6c0.2,0,0.4-0.1,0.5-0.1
					c0.2,0,0.4,0,0.6-0.1c0.2-0.1,0.1-0.3,0.3-0.5c0.1-0.1,0.3,0,0.4-0.1c0.2-0.1,0.3-0.3,0.4-0.5c0-0.1,0-0.1,0-0.2
					c0-0.1,0.1-0.2,0.1-0.3c0-0.1-0.1-0.1-0.1-0.2c0-0.1,0-0.2,0-0.3c0-0.2,0-0.4-0.1-0.5c-0.4-0.7-1.2-0.9-2-0.8
					c-0.2,0-0.3,0.1-0.4,0.2c-0.2,0.1-0.1,0.2-0.3,0.2c-0.1,0-0.2,0.1-0.2,0.2C54.1-18.1,54.1-18.2,54.1-18.1
					C54.1-18,54.1-18.1,54.1-18.1"/>
				<path class="st2" d="M46.5-18.1c0,0.1,0,0.1,0,0.2c-0.1,0.1-0.1,0.1-0.2,0.1c-0.1,0.1-0.1,0.3-0.1,0.4c-0.2,0.1,0,0.2,0,0.3
					c0,0,0,0.1,0,0.2c0,0.1,0,0.3,0.1,0.4c0.1,0.2,0.3,0.4,0.4,0.5c0.2,0.1,0.4,0.6,0.6,0.6c0.2,0,0.4-0.1,0.5-0.1
					c0.2,0,0.4,0,0.6-0.1c0.2-0.1,0.1-0.3,0.3-0.5c0.1-0.1,0.3,0,0.4-0.1c0.2-0.1,0.3-0.3,0.4-0.5c0-0.1,0-0.1,0-0.2
					c0-0.1,0.1-0.2,0.1-0.3c0-0.1-0.1-0.1-0.1-0.2c0-0.1,0-0.2,0-0.3c0-0.2,0-0.4-0.1-0.5c-0.4-0.7-1.2-0.9-2-0.8
					c-0.2,0-0.3,0.1-0.4,0.2c-0.2,0.1-0.1,0.2-0.3,0.2c-0.1,0-0.2,0.1-0.2,0.2C46.5-18.1,46.5-18.2,46.5-18.1
					C46.5-18,46.5-18.1,46.5-18.1"/>
				<path class="st2" d="M38.8-18.1c0,0.1,0,0.1,0,0.2c-0.1,0.1-0.1,0.1-0.2,0.1c-0.1,0.1-0.1,0.3-0.1,0.4c-0.2,0.1,0,0.2,0,0.3
					c0,0,0,0.1,0,0.2c0,0.1,0,0.3,0.1,0.4c0.1,0.2,0.3,0.4,0.4,0.5c0.2,0.1,0.4,0.6,0.6,0.6c0.2,0,0.4-0.1,0.5-0.1
					c0.2,0,0.4,0,0.6-0.1c0.2-0.1,0.1-0.3,0.3-0.5c0.1-0.1,0.3,0,0.4-0.1c0.2-0.1,0.3-0.3,0.4-0.5c0-0.1,0-0.1,0-0.2
					c0-0.1,0.1-0.2,0.1-0.3c0-0.1-0.1-0.1-0.1-0.2c0-0.1,0-0.2,0-0.3c0-0.2,0-0.4-0.1-0.5c-0.4-0.7-1.2-0.9-2-0.8
					c-0.2,0-0.3,0.1-0.4,0.2c-0.2,0.1-0.1,0.2-0.3,0.2c-0.1,0-0.2,0.1-0.2,0.2C38.8-18.1,38.8-18.2,38.8-18.1
					C38.8-18,38.8-18.1,38.8-18.1"/>
				<path class="st2" d="M31.1-18.1c0,0.1,0,0.1,0,0.2c-0.1,0.1-0.1,0.1-0.2,0.1c-0.1,0.1-0.1,0.3-0.1,0.4c-0.2,0.1,0,0.2,0,0.3
					c0,0,0,0.1,0,0.2c0,0.1,0,0.3,0.1,0.4c0.1,0.2,0.3,0.4,0.4,0.5c0.2,0.1,0.4,0.6,0.6,0.6c0.2,0,0.4-0.1,0.5-0.1
					c0.2,0,0.4,0,0.6-0.1c0.2-0.1,0.1-0.3,0.3-0.5c0.1-0.1,0.3,0,0.4-0.1c0.2-0.1,0.3-0.3,0.4-0.5c0-0.1,0-0.1,0-0.2
					c0-0.1,0.1-0.2,0.1-0.3c0-0.1-0.1-0.1-0.1-0.2c0-0.1,0-0.2,0-0.3c0-0.2,0-0.4-0.1-0.5c-0.4-0.7-1.2-0.9-2-0.8
					c-0.2,0-0.3,0.1-0.4,0.2c-0.2,0.1-0.1,0.2-0.3,0.2c-0.1,0-0.2,0.1-0.2,0.2C31.1-18.1,31.1-18.2,31.1-18.1
					C31.1-18,31.1-18.1,31.1-18.1"/>
				<path class="st2" d="M23.5-18.1c0,0.1,0,0.1,0,0.2c-0.1,0.1-0.1,0.1-0.2,0.1c-0.1,0.1-0.1,0.3-0.1,0.4c-0.2,0.1,0,0.2,0,0.3
					c0,0,0,0.1,0,0.2c0,0.1,0,0.3,0.1,0.4c0.1,0.2,0.3,0.4,0.4,0.5c0.2,0.1,0.4,0.6,0.6,0.6c0.2,0,0.4-0.1,0.5-0.1
					c0.2,0,0.4,0,0.6-0.1c0.2-0.1,0.1-0.3,0.3-0.5c0.1-0.1,0.3,0,0.4-0.1c0.2-0.1,0.3-0.3,0.4-0.5c0-0.1,0-0.1,0-0.2
					c0-0.1,0.1-0.2,0.1-0.3c0-0.1-0.1-0.1-0.1-0.2c0-0.1,0-0.2,0-0.3c0-0.2,0-0.4-0.1-0.5c-0.4-0.7-1.2-0.9-2-0.8
					c-0.2,0-0.3,0.1-0.4,0.2c-0.2,0.1-0.1,0.2-0.3,0.2c-0.1,0-0.2,0.1-0.2,0.2C23.5-18.1,23.5-18.2,23.5-18.1
					C23.5-18,23.5-18.1,23.5-18.1"/>
				<path class="st2" d="M15.8-18.1c0,0.1,0,0.1,0,0.2c-0.1,0.1-0.1,0.1-0.2,0.1c-0.1,0.1-0.1,0.3-0.1,0.4c-0.2,0.1,0,0.2,0,0.3
					c0,0,0,0.1,0,0.2c0,0.1,0,0.3,0.1,0.4c0.1,0.2,0.3,0.4,0.4,0.5c0.2,0.1,0.4,0.6,0.6,0.6c0.2,0,0.4-0.1,0.5-0.1
					c0.2,0,0.4,0,0.6-0.1c0.2-0.1,0.1-0.3,0.3-0.5c0.1-0.1,0.3,0,0.4-0.1c0.2-0.1,0.3-0.3,0.4-0.5c0-0.1,0-0.1,0-0.2
					c0-0.1,0.1-0.2,0.1-0.3c0-0.1-0.1-0.1-0.1-0.2c0-0.1,0-0.2,0-0.3c0-0.2,0-0.4-0.1-0.5c-0.4-0.7-1.2-0.9-2-0.8
					c-0.2,0-0.3,0.1-0.4,0.2c-0.2,0.1-0.1,0.2-0.3,0.2c-0.1,0-0.2,0.1-0.2,0.2C15.8-18.1,15.8-18.2,15.8-18.1
					C15.8-18,15.8-18.1,15.8-18.1"/>
				<path class="st2" d="M8.2-18.1c0,0.1,0,0.1,0,0.2C8.1-17.8,8-17.8,8-17.8c-0.1,0.1-0.1,0.3-0.1,0.4c-0.2,0.1,0,0.2,0,0.3
					c0,0,0,0.1,0,0.2c0,0.1,0,0.3,0.1,0.4C8-16.3,8.2-16.1,8.3-16c0.2,0.1,0.4,0.6,0.6,0.6c0.2,0,0.4-0.1,0.5-0.1
					c0.2,0,0.4,0,0.6-0.1c0.2-0.1,0.1-0.3,0.3-0.5c0.1-0.1,0.3,0,0.4-0.1c0.2-0.1,0.3-0.3,0.4-0.5c0-0.1,0-0.1,0-0.2
					c0-0.1,0.1-0.2,0.1-0.3c0-0.1-0.1-0.1-0.1-0.2c0-0.1,0-0.2,0-0.3c0-0.2,0-0.4-0.1-0.5c-0.4-0.7-1.2-0.9-2-0.8
					c-0.2,0-0.3,0.1-0.4,0.2c-0.2,0.1-0.1,0.2-0.3,0.2c-0.1,0-0.2,0.1-0.2,0.2C8.2-18.1,8.2-18.2,8.2-18.1C8.1-18,8.1-18.1,8.2-18.1
					"/>
				<path class="st2" d="M0.5-18.1c0,0.1,0,0.1,0,0.2c-0.1,0.1-0.1,0.1-0.2,0.1c-0.1,0.1-0.1,0.3-0.1,0.4c-0.2,0.1,0,0.2,0,0.3
					c0,0,0,0.1,0,0.2c0,0.1,0,0.3,0.1,0.4c0.1,0.2,0.3,0.4,0.4,0.5c0.2,0.1,0.4,0.6,0.6,0.6c0.2,0,0.4-0.1,0.5-0.1
					c0.2,0,0.4,0,0.6-0.1c0.2-0.1,0.1-0.3,0.3-0.5C2.8-16.1,3-16,3.1-16c0.2-0.1,0.3-0.3,0.4-0.5c0-0.1,0-0.1,0-0.2
					c0-0.1,0.1-0.2,0.1-0.3c0-0.1-0.1-0.1-0.1-0.2c0-0.1,0-0.2,0-0.3c0-0.2,0-0.4-0.1-0.5c-0.4-0.7-1.2-0.9-2-0.8
					c-0.2,0-0.3,0.1-0.4,0.2c-0.2,0.1-0.1,0.2-0.3,0.2c-0.1,0-0.2,0.1-0.2,0.2C0.5-18.1,0.5-18.2,0.5-18.1C0.5-18,0.5-18.1,0.5-18.1
					"/>
			</g>
			<g>
				<path class="st2" d="M69.4-10.4c0,0.1,0,0.1,0,0.2c-0.1,0.1-0.1,0.1-0.2,0.1c-0.1,0.1-0.1,0.3-0.1,0.4c-0.2,0.1,0,0.2,0,0.3
					c0,0,0,0.1,0,0.2c0,0.1,0,0.3,0.1,0.4c0.1,0.2,0.3,0.4,0.4,0.5c0.2,0.1,0.4,0.6,0.6,0.6c0.2,0,0.4-0.1,0.5-0.1
					c0.2,0,0.4,0,0.6-0.1c0.2-0.1,0.1-0.3,0.3-0.5c0.1-0.1,0.3,0,0.4-0.1c0.2-0.1,0.3-0.3,0.4-0.5c0-0.1,0-0.1,0-0.2
					c0-0.1,0.1-0.2,0.1-0.3c0-0.1-0.1-0.1-0.1-0.2c0-0.1,0-0.2,0-0.3c0-0.2,0-0.4-0.1-0.5c-0.4-0.7-1.2-0.9-2-0.8
					c-0.2,0-0.3,0.1-0.4,0.2c-0.2,0.1-0.1,0.2-0.3,0.2c-0.1,0-0.2,0.1-0.2,0.2C69.4-10.5,69.4-10.5,69.4-10.4
					C69.4-10.4,69.4-10.4,69.4-10.4"/>
				<path class="st2" d="M61.8-10.4c0,0.1,0,0.1,0,0.2c-0.1,0.1-0.1,0.1-0.2,0.1c-0.1,0.1-0.1,0.3-0.1,0.4c-0.2,0.1,0,0.2,0,0.3
					c0,0,0,0.1,0,0.2c0,0.1,0,0.3,0.1,0.4c0.1,0.2,0.3,0.4,0.4,0.5c0.2,0.1,0.4,0.6,0.6,0.6c0.2,0,0.4-0.1,0.5-0.1
					c0.2,0,0.4,0,0.6-0.1C63.9-8,63.8-8.2,64-8.3c0.1-0.1,0.3,0,0.4-0.1c0.2-0.1,0.3-0.3,0.4-0.5c0-0.1,0-0.1,0-0.2
					c0-0.1,0.1-0.2,0.1-0.3c0-0.1-0.1-0.1-0.1-0.2c0-0.1,0-0.2,0-0.3c0-0.2,0-0.4-0.1-0.5c-0.4-0.7-1.2-0.9-2-0.8
					c-0.2,0-0.3,0.1-0.4,0.2c-0.2,0.1-0.1,0.2-0.3,0.2c-0.1,0-0.2,0.1-0.2,0.2C61.8-10.5,61.8-10.5,61.8-10.4
					C61.8-10.4,61.8-10.4,61.8-10.4"/>
				<path class="st2" d="M54.1-10.4c0,0.1,0,0.1,0,0.2c-0.1,0.1-0.1,0.1-0.2,0.1c-0.1,0.1-0.1,0.3-0.1,0.4c-0.2,0.1,0,0.2,0,0.3
					c0,0,0,0.1,0,0.2c0,0.1,0,0.3,0.1,0.4c0.1,0.2,0.3,0.4,0.4,0.5c0.2,0.1,0.4,0.6,0.6,0.6c0.2,0,0.4-0.1,0.5-0.1
					c0.2,0,0.4,0,0.6-0.1c0.2-0.1,0.1-0.3,0.3-0.5c0.1-0.1,0.3,0,0.4-0.1c0.2-0.1,0.3-0.3,0.4-0.5c0-0.1,0-0.1,0-0.2
					c0-0.1,0.1-0.2,0.1-0.3c0-0.1-0.1-0.1-0.1-0.2c0-0.1,0-0.2,0-0.3c0-0.2,0-0.4-0.1-0.5c-0.4-0.7-1.2-0.9-2-0.8
					c-0.2,0-0.3,0.1-0.4,0.2c-0.2,0.1-0.1,0.2-0.3,0.2c-0.1,0-0.2,0.1-0.2,0.2C54.1-10.5,54.1-10.5,54.1-10.4
					C54.1-10.4,54.1-10.4,54.1-10.4"/>
				<path class="st2" d="M46.5-10.4c0,0.1,0,0.1,0,0.2c-0.1,0.1-0.1,0.1-0.2,0.1c-0.1,0.1-0.1,0.3-0.1,0.4c-0.2,0.1,0,0.2,0,0.3
					c0,0,0,0.1,0,0.2c0,0.1,0,0.3,0.1,0.4c0.1,0.2,0.3,0.4,0.4,0.5c0.2,0.1,0.4,0.6,0.6,0.6c0.2,0,0.4-0.1,0.5-0.1
					c0.2,0,0.4,0,0.6-0.1c0.2-0.1,0.1-0.3,0.3-0.5c0.1-0.1,0.3,0,0.4-0.1c0.2-0.1,0.3-0.3,0.4-0.5c0-0.1,0-0.1,0-0.2
					c0-0.1,0.1-0.2,0.1-0.3c0-0.1-0.1-0.1-0.1-0.2c0-0.1,0-0.2,0-0.3c0-0.2,0-0.4-0.1-0.5c-0.4-0.7-1.2-0.9-2-0.8
					c-0.2,0-0.3,0.1-0.4,0.2c-0.2,0.1-0.1,0.2-0.3,0.2c-0.1,0-0.2,0.1-0.2,0.2C46.5-10.5,46.5-10.5,46.5-10.4
					C46.5-10.4,46.5-10.4,46.5-10.4"/>
				<path class="st2" d="M38.8-10.4c0,0.1,0,0.1,0,0.2c-0.1,0.1-0.1,0.1-0.2,0.1c-0.1,0.1-0.1,0.3-0.1,0.4c-0.2,0.1,0,0.2,0,0.3
					c0,0,0,0.1,0,0.2c0,0.1,0,0.3,0.1,0.4c0.1,0.2,0.3,0.4,0.4,0.5c0.2,0.1,0.4,0.6,0.6,0.6c0.2,0,0.4-0.1,0.5-0.1
					c0.2,0,0.4,0,0.6-0.1C40.9-8,40.8-8.2,41-8.3c0.1-0.1,0.3,0,0.4-0.1c0.2-0.1,0.3-0.3,0.4-0.5c0-0.1,0-0.1,0-0.2
					c0-0.1,0.1-0.2,0.1-0.3c0-0.1-0.1-0.1-0.1-0.2c0-0.1,0-0.2,0-0.3c0-0.2,0-0.4-0.1-0.5c-0.4-0.7-1.2-0.9-2-0.8
					c-0.2,0-0.3,0.1-0.4,0.2c-0.2,0.1-0.1,0.2-0.3,0.2c-0.1,0-0.2,0.1-0.2,0.2C38.8-10.5,38.8-10.5,38.8-10.4
					C38.8-10.4,38.8-10.4,38.8-10.4"/>
				<path class="st2" d="M31.1-10.4c0,0.1,0,0.1,0,0.2c-0.1,0.1-0.1,0.1-0.2,0.1c-0.1,0.1-0.1,0.3-0.1,0.4c-0.2,0.1,0,0.2,0,0.3
					c0,0,0,0.1,0,0.2c0,0.1,0,0.3,0.1,0.4c0.1,0.2,0.3,0.4,0.4,0.5c0.2,0.1,0.4,0.6,0.6,0.6c0.2,0,0.4-0.1,0.5-0.1
					c0.2,0,0.4,0,0.6-0.1c0.2-0.1,0.1-0.3,0.3-0.5c0.1-0.1,0.3,0,0.4-0.1c0.2-0.1,0.3-0.3,0.4-0.5c0-0.1,0-0.1,0-0.2
					c0-0.1,0.1-0.2,0.1-0.3c0-0.1-0.1-0.1-0.1-0.2c0-0.1,0-0.2,0-0.3c0-0.2,0-0.4-0.1-0.5c-0.4-0.7-1.2-0.9-2-0.8
					c-0.2,0-0.3,0.1-0.4,0.2c-0.2,0.1-0.1,0.2-0.3,0.2c-0.1,0-0.2,0.1-0.2,0.2C31.1-10.5,31.1-10.5,31.1-10.4
					C31.1-10.4,31.1-10.4,31.1-10.4"/>
				<path class="st2" d="M23.5-10.4c0,0.1,0,0.1,0,0.2c-0.1,0.1-0.1,0.1-0.2,0.1c-0.1,0.1-0.1,0.3-0.1,0.4c-0.2,0.1,0,0.2,0,0.3
					c0,0,0,0.1,0,0.2c0,0.1,0,0.3,0.1,0.4c0.1,0.2,0.3,0.4,0.4,0.5c0.2,0.1,0.4,0.6,0.6,0.6c0.2,0,0.4-0.1,0.5-0.1
					c0.2,0,0.4,0,0.6-0.1c0.2-0.1,0.1-0.3,0.3-0.5c0.1-0.1,0.3,0,0.4-0.1c0.2-0.1,0.3-0.3,0.4-0.5c0-0.1,0-0.1,0-0.2
					c0-0.1,0.1-0.2,0.1-0.3c0-0.1-0.1-0.1-0.1-0.2c0-0.1,0-0.2,0-0.3c0-0.2,0-0.4-0.1-0.5c-0.4-0.7-1.2-0.9-2-0.8
					c-0.2,0-0.3,0.1-0.4,0.2c-0.2,0.1-0.1,0.2-0.3,0.2c-0.1,0-0.2,0.1-0.2,0.2C23.5-10.5,23.5-10.5,23.5-10.4
					C23.5-10.4,23.5-10.4,23.5-10.4"/>
				<path class="st2" d="M15.8-10.4c0,0.1,0,0.1,0,0.2c-0.1,0.1-0.1,0.1-0.2,0.1c-0.1,0.1-0.1,0.3-0.1,0.4c-0.2,0.1,0,0.2,0,0.3
					c0,0,0,0.1,0,0.2c0,0.1,0,0.3,0.1,0.4c0.1,0.2,0.3,0.4,0.4,0.5c0.2,0.1,0.4,0.6,0.6,0.6c0.2,0,0.4-0.1,0.5-0.1
					c0.2,0,0.4,0,0.6-0.1C17.9-8,17.8-8.2,18-8.3c0.1-0.1,0.3,0,0.4-0.1c0.2-0.1,0.3-0.3,0.4-0.5c0-0.1,0-0.1,0-0.2
					c0-0.1,0.1-0.2,0.1-0.3c0-0.1-0.1-0.1-0.1-0.2c0-0.1,0-0.2,0-0.3c0-0.2,0-0.4-0.1-0.5c-0.4-0.7-1.2-0.9-2-0.8
					c-0.2,0-0.3,0.1-0.4,0.2c-0.2,0.1-0.1,0.2-0.3,0.2c-0.1,0-0.2,0.1-0.2,0.2C15.8-10.5,15.8-10.5,15.8-10.4
					C15.8-10.4,15.8-10.4,15.8-10.4"/>
				<path class="st2" d="M8.2-10.4c0,0.1,0,0.1,0,0.2C8.1-10.1,8-10.2,8-10.1C7.9-10,7.9-9.8,7.9-9.8c-0.2,0.1,0,0.2,0,0.3
					c0,0,0,0.1,0,0.2c0,0.1,0,0.3,0.1,0.4C8-8.7,8.2-8.5,8.3-8.3c0.2,0.1,0.4,0.6,0.6,0.6c0.2,0,0.4-0.1,0.5-0.1
					c0.2,0,0.4,0,0.6-0.1c0.2-0.1,0.1-0.3,0.3-0.5c0.1-0.1,0.3,0,0.4-0.1c0.2-0.1,0.3-0.3,0.4-0.5c0-0.1,0-0.1,0-0.2
					c0-0.1,0.1-0.2,0.1-0.3c0-0.1-0.1-0.1-0.1-0.2c0-0.1,0-0.2,0-0.3c0-0.2,0-0.4-0.1-0.5c-0.4-0.7-1.2-0.9-2-0.8
					c-0.2,0-0.3,0.1-0.4,0.2c-0.2,0.1-0.1,0.2-0.3,0.2c-0.1,0-0.2,0.1-0.2,0.2C8.2-10.5,8.2-10.5,8.2-10.4
					C8.1-10.4,8.1-10.4,8.2-10.4"/>
				<path class="st2" d="M0.5-10.4c0,0.1,0,0.1,0,0.2c-0.1,0.1-0.1,0.1-0.2,0.1C0.3-10,0.2-9.8,0.2-9.8c-0.2,0.1,0,0.2,0,0.3
					c0,0,0,0.1,0,0.2c0,0.1,0,0.3,0.1,0.4c0.1,0.2,0.3,0.4,0.4,0.5C0.9-8.2,1-7.8,1.3-7.7c0.2,0,0.4-0.1,0.5-0.1
					c0.2,0,0.4,0,0.6-0.1C2.6-8,2.5-8.2,2.7-8.3c0.1-0.1,0.3,0,0.4-0.1c0.2-0.1,0.3-0.3,0.4-0.5c0-0.1,0-0.1,0-0.2
					c0-0.1,0.1-0.2,0.1-0.3c0-0.1-0.1-0.1-0.1-0.2c0-0.1,0-0.2,0-0.3c0-0.2,0-0.4-0.1-0.5c-0.4-0.7-1.2-0.9-2-0.8
					c-0.2,0-0.3,0.1-0.4,0.2c-0.2,0.1-0.1,0.2-0.3,0.2c-0.1,0-0.2,0.1-0.2,0.2C0.5-10.5,0.5-10.5,0.5-10.4
					C0.5-10.4,0.5-10.4,0.5-10.4"/>
			</g>
		</g>
		<g>
			<path class="st2" d="M69.4-2.8c0,0.1,0,0.1,0,0.2c-0.1,0.1-0.1,0.1-0.2,0.1c-0.1,0.1-0.1,0.3-0.1,0.4c-0.2,0.1,0,0.2,0,0.3
				c0,0,0,0.1,0,0.2c0,0.1,0,0.3,0.1,0.4c0.1,0.2,0.3,0.4,0.4,0.5C69.8-0.5,70-0.1,70.2,0c0.2,0,0.4-0.1,0.5-0.1
				c0.2,0,0.4,0,0.6-0.1c0.2-0.1,0.1-0.3,0.3-0.5c0.1-0.1,0.3,0,0.4-0.1c0.2-0.1,0.3-0.3,0.4-0.5c0-0.1,0-0.1,0-0.2
				c0-0.1,0.1-0.2,0.1-0.3c0-0.1-0.1-0.1-0.1-0.2c0-0.1,0-0.2,0-0.3c0-0.2,0-0.4-0.1-0.5c-0.4-0.7-1.2-0.9-2-0.8
				c-0.2,0-0.3,0.1-0.4,0.2c-0.2,0.1-0.1,0.2-0.3,0.2c-0.1,0-0.2,0.1-0.2,0.2C69.4-2.8,69.4-2.9,69.4-2.8
				C69.4-2.7,69.4-2.8,69.4-2.8"/>
			<path class="st2" d="M61.8-2.8c0,0.1,0,0.1,0,0.2c-0.1,0.1-0.1,0.1-0.2,0.1c-0.1,0.1-0.1,0.3-0.1,0.4c-0.2,0.1,0,0.2,0,0.3
				c0,0,0,0.1,0,0.2c0,0.1,0,0.3,0.1,0.4C61.6-1,61.8-0.8,62-0.7c0.2,0.1,0.4,0.6,0.6,0.6c0.2,0,0.4-0.1,0.5-0.1
				c0.2,0,0.4,0,0.6-0.1c0.2-0.1,0.1-0.3,0.3-0.5c0.1-0.1,0.3,0,0.4-0.1c0.2-0.1,0.3-0.3,0.4-0.5c0-0.1,0-0.1,0-0.2
				c0-0.1,0.1-0.2,0.1-0.3c0-0.1-0.1-0.1-0.1-0.2c0-0.1,0-0.2,0-0.3c0-0.2,0-0.4-0.1-0.5c-0.4-0.7-1.2-0.9-2-0.8
				c-0.2,0-0.3,0.1-0.4,0.2c-0.2,0.1-0.1,0.2-0.3,0.2c-0.1,0-0.2,0.1-0.2,0.2C61.8-2.8,61.8-2.9,61.8-2.8
				C61.8-2.7,61.8-2.8,61.8-2.8"/>
			<path class="st2" d="M54.1-2.8c0,0.1,0,0.1,0,0.2C54-2.5,54-2.5,53.9-2.5c-0.1,0.1-0.1,0.3-0.1,0.4c-0.2,0.1,0,0.2,0,0.3
				c0,0,0,0.1,0,0.2c0,0.1,0,0.3,0.1,0.4C54-1,54.1-0.8,54.3-0.7c0.2,0.1,0.4,0.6,0.6,0.6c0.2,0,0.4-0.1,0.5-0.1
				c0.2,0,0.4,0,0.6-0.1c0.2-0.1,0.1-0.3,0.3-0.5c0.1-0.1,0.3,0,0.4-0.1C56.9-0.8,57-1,57.1-1.2c0-0.1,0-0.1,0-0.2
				c0-0.1,0.1-0.2,0.1-0.3c0-0.1-0.1-0.1-0.1-0.2c0-0.1,0-0.2,0-0.3c0-0.2,0-0.4-0.1-0.5c-0.4-0.7-1.2-0.9-2-0.8
				c-0.2,0-0.3,0.1-0.4,0.2c-0.2,0.1-0.1,0.2-0.3,0.2c-0.1,0-0.2,0.1-0.2,0.2C54.1-2.8,54.1-2.9,54.1-2.8
				C54.1-2.7,54.1-2.8,54.1-2.8"/>
			<path class="st2" d="M46.5-2.8c0,0.1,0,0.1,0,0.2c-0.1,0.1-0.1,0.1-0.2,0.1c-0.1,0.1-0.1,0.3-0.1,0.4c-0.2,0.1,0,0.2,0,0.3
				c0,0,0,0.1,0,0.2c0,0.1,0,0.3,0.1,0.4c0.1,0.2,0.3,0.4,0.4,0.5C46.8-0.5,47-0.1,47.2,0c0.2,0,0.4-0.1,0.5-0.1
				c0.2,0,0.4,0,0.6-0.1c0.2-0.1,0.1-0.3,0.3-0.5c0.1-0.1,0.3,0,0.4-0.1c0.2-0.1,0.3-0.3,0.4-0.5c0-0.1,0-0.1,0-0.2
				c0-0.1,0.1-0.2,0.1-0.3c0-0.1-0.1-0.1-0.1-0.2c0-0.1,0-0.2,0-0.3c0-0.2,0-0.4-0.1-0.5c-0.4-0.7-1.2-0.9-2-0.8
				c-0.2,0-0.3,0.1-0.4,0.2c-0.2,0.1-0.1,0.2-0.3,0.2c-0.1,0-0.2,0.1-0.2,0.2C46.5-2.8,46.5-2.9,46.5-2.8
				C46.5-2.7,46.5-2.8,46.5-2.8"/>
			<path class="st2" d="M38.8-2.8c0,0.1,0,0.1,0,0.2c-0.1,0.1-0.1,0.1-0.2,0.1c-0.1,0.1-0.1,0.3-0.1,0.4c-0.2,0.1,0,0.2,0,0.3
				c0,0,0,0.1,0,0.2c0,0.1,0,0.3,0.1,0.4C38.6-1,38.8-0.8,39-0.7c0.2,0.1,0.4,0.6,0.6,0.6c0.2,0,0.4-0.1,0.5-0.1
				c0.2,0,0.4,0,0.6-0.1c0.2-0.1,0.1-0.3,0.3-0.5c0.1-0.1,0.3,0,0.4-0.1c0.2-0.1,0.3-0.3,0.4-0.5c0-0.1,0-0.1,0-0.2
				c0-0.1,0.1-0.2,0.1-0.3c0-0.1-0.1-0.1-0.1-0.2c0-0.1,0-0.2,0-0.3c0-0.2,0-0.4-0.1-0.5c-0.4-0.7-1.2-0.9-2-0.8
				c-0.2,0-0.3,0.1-0.4,0.2c-0.2,0.1-0.1,0.2-0.3,0.2c-0.1,0-0.2,0.1-0.2,0.2C38.8-2.8,38.8-2.9,38.8-2.8
				C38.8-2.7,38.8-2.8,38.8-2.8"/>
			<path class="st2" d="M31.1-2.8c0,0.1,0,0.1,0,0.2c-0.1,0.1-0.1,0.1-0.2,0.1c-0.1,0.1-0.1,0.3-0.1,0.4c-0.2,0.1,0,0.2,0,0.3
				c0,0,0,0.1,0,0.2c0,0.1,0,0.3,0.1,0.4C31-1,31.1-0.8,31.3-0.7c0.2,0.1,0.4,0.6,0.6,0.6c0.2,0,0.4-0.1,0.5-0.1
				c0.2,0,0.4,0,0.6-0.1c0.2-0.1,0.1-0.3,0.3-0.5c0.1-0.1,0.3,0,0.4-0.1c0.2-0.1,0.3-0.3,0.4-0.5c0-0.1,0-0.1,0-0.2
				c0-0.1,0.1-0.2,0.1-0.3c0-0.1-0.1-0.1-0.1-0.2c0-0.1,0-0.2,0-0.3c0-0.2,0-0.4-0.1-0.5c-0.4-0.7-1.2-0.9-2-0.8
				c-0.2,0-0.3,0.1-0.4,0.2c-0.2,0.1-0.1,0.2-0.3,0.2c-0.1,0-0.2,0.1-0.2,0.2C31.1-2.8,31.1-2.9,31.1-2.8
				C31.1-2.7,31.1-2.8,31.1-2.8"/>
			<path class="st2" d="M23.5-2.8c0,0.1,0,0.1,0,0.2c-0.1,0.1-0.1,0.1-0.2,0.1c-0.1,0.1-0.1,0.3-0.1,0.4c-0.2,0.1,0,0.2,0,0.3
				c0,0,0,0.1,0,0.2c0,0.1,0,0.3,0.1,0.4c0.1,0.2,0.3,0.4,0.4,0.5C23.8-0.5,24-0.1,24.3,0c0.2,0,0.4-0.1,0.5-0.1
				c0.2,0,0.4,0,0.6-0.1c0.2-0.1,0.1-0.3,0.3-0.5c0.1-0.1,0.3,0,0.4-0.1c0.2-0.1,0.3-0.3,0.4-0.5c0-0.1,0-0.1,0-0.2
				c0-0.1,0.1-0.2,0.1-0.3c0-0.1-0.1-0.1-0.1-0.2c0-0.1,0-0.2,0-0.3c0-0.2,0-0.4-0.1-0.5c-0.4-0.7-1.2-0.9-2-0.8
				c-0.2,0-0.3,0.1-0.4,0.2c-0.2,0.1-0.1,0.2-0.3,0.2c-0.1,0-0.2,0.1-0.2,0.2C23.5-2.8,23.5-2.9,23.5-2.8
				C23.5-2.7,23.5-2.8,23.5-2.8"/>
			<path class="st2" d="M15.8-2.8c0,0.1,0,0.1,0,0.2c-0.1,0.1-0.1,0.1-0.2,0.1c-0.1,0.1-0.1,0.3-0.1,0.4c-0.2,0.1,0,0.2,0,0.3
				c0,0,0,0.1,0,0.2c0,0.1,0,0.3,0.1,0.4C15.7-1,15.8-0.8,16-0.7c0.2,0.1,0.4,0.6,0.6,0.6c0.2,0,0.4-0.1,0.5-0.1
				c0.2,0,0.4,0,0.6-0.1c0.2-0.1,0.1-0.3,0.3-0.5c0.1-0.1,0.3,0,0.4-0.1c0.2-0.1,0.3-0.3,0.4-0.5c0-0.1,0-0.1,0-0.2
				c0-0.1,0.1-0.2,0.1-0.3c0-0.1-0.1-0.1-0.1-0.2c0-0.1,0-0.2,0-0.3c0-0.2,0-0.4-0.1-0.5c-0.4-0.7-1.2-0.9-2-0.8
				c-0.2,0-0.3,0.1-0.4,0.2c-0.2,0.1-0.1,0.2-0.3,0.2c-0.1,0-0.2,0.1-0.2,0.2C15.8-2.8,15.8-2.9,15.8-2.8
				C15.8-2.7,15.8-2.8,15.8-2.8"/>
			<path class="st2" d="M8.2-2.8c0,0.1,0,0.1,0,0.2C8.1-2.5,8-2.5,8-2.5C7.9-2.4,7.9-2.2,7.9-2.1c-0.2,0.1,0,0.2,0,0.3
				c0,0,0,0.1,0,0.2c0,0.1,0,0.3,0.1,0.4C8-1,8.2-0.8,8.3-0.7C8.5-0.5,8.7-0.1,8.9,0c0.2,0,0.4-0.1,0.5-0.1c0.2,0,0.4,0,0.6-0.1
				c0.2-0.1,0.1-0.3,0.3-0.5c0.1-0.1,0.3,0,0.4-0.1c0.2-0.1,0.3-0.3,0.4-0.5c0-0.1,0-0.1,0-0.2c0-0.1,0.1-0.2,0.1-0.3
				c0-0.1-0.1-0.1-0.1-0.2c0-0.1,0-0.2,0-0.3c0-0.2,0-0.4-0.1-0.5c-0.4-0.7-1.2-0.9-2-0.8C9-3.5,8.8-3.4,8.7-3.4
				C8.5-3.3,8.6-3.2,8.4-3.1C8.3-3.1,8.2-3,8.2-2.9C8.2-2.8,8.2-2.9,8.2-2.8C8.1-2.7,8.1-2.8,8.2-2.8"/>
			<path class="st2" d="M0.5-2.8c0,0.1,0,0.1,0,0.2C0.4-2.5,0.4-2.5,0.3-2.5C0.3-2.4,0.2-2.2,0.2-2.1c-0.2,0.1,0,0.2,0,0.3
				c0,0,0,0.1,0,0.2c0,0.1,0,0.3,0.1,0.4C0.3-1,0.5-0.8,0.7-0.7C0.9-0.5,1-0.1,1.3,0c0.2,0,0.4-0.1,0.5-0.1c0.2,0,0.4,0,0.6-0.1
				c0.2-0.1,0.1-0.3,0.3-0.5c0.1-0.1,0.3,0,0.4-0.1C3.3-0.8,3.4-1,3.5-1.2c0-0.1,0-0.1,0-0.2c0-0.1,0.1-0.2,0.1-0.3
				c0-0.1-0.1-0.1-0.1-0.2c0-0.1,0-0.2,0-0.3c0-0.2,0-0.4-0.1-0.5c-0.4-0.7-1.2-0.9-2-0.8C1.3-3.5,1.2-3.4,1-3.4
				C0.9-3.3,0.9-3.2,0.7-3.1C0.6-3.1,0.5-3,0.5-2.9C0.5-2.8,0.5-2.9,0.5-2.8C0.5-2.7,0.5-2.8,0.5-2.8"/>
		</g>
	</g>
</pattern>
<g>
	<path class="st3" d="M19.4,216.6l6.1-3.1l-0.2-0.4c-0.3-0.7-0.7-1.1-1.1-1.5c-0.4-0.3-0.9-0.5-1.5-0.6c-0.6-0.1-1.3,0.1-2.2,0.4
		l-0.2-0.4l7.5-3.8l0.2,0.4c-1.3,0.9-2.1,1.7-2.2,2.6c-0.1,0.8,0,1.7,0.4,2.4l0.2,0.4l4.6-2.3c0.8-0.4,1.2-0.7,1.4-0.9
		c0.1-0.2,0.2-0.4,0.2-0.7c0-0.3-0.1-0.7-0.3-1.1l-0.3-0.5l0.4-0.2l4,7.8l-0.4,0.2l-0.3-0.5c-0.2-0.4-0.5-0.7-0.8-0.9
		c-0.2-0.1-0.5-0.2-0.8-0.2c-0.2,0-0.7,0.2-1.4,0.6l-9.8,5c-0.8,0.4-1.2,0.7-1.4,0.8c-0.2,0.2-0.2,0.4-0.3,0.7
		c0,0.3,0.1,0.7,0.3,1.1l0.3,0.5l-0.4,0.2L15,210.1l4.3-2.2l0.2,0.5c-1,0.6-1.6,1.3-1.8,1.9c-0.3,0.7-0.3,1.4-0.1,2.3
		c0.1,0.5,0.5,1.3,1.1,2.5L19.4,216.6L19.4,216.6z M22.1,194.2l1.8,5.6l1.8,0.2c0.6,0.1,1,0,1.4-0.1c0.4-0.1,0.7-0.4,0.8-0.9
		c0.1-0.3,0-0.8-0.2-1.6l0.4-0.1l1.7,5.3l-0.4,0.1c-0.3-0.5-0.7-0.9-1.2-1.2c-0.5-0.2-1.5-0.4-2.8-0.6l-14.5-1.6l-0.1-0.2l11.2-10
		c1.1-1,1.7-1.6,1.9-2.1c0.2-0.3,0.2-0.8,0.1-1.3l0.4-0.1l2.5,7.7l-0.4,0.1l-0.1-0.3c-0.2-0.6-0.4-1-0.7-1.2
		c-0.2-0.1-0.4-0.2-0.6-0.1c-0.1,0-0.3,0.1-0.4,0.2c-0.1,0-0.3,0.3-0.8,0.6L22.1,194.2L22.1,194.2z M21.4,194.9l-4.7,4.1l6.3,0.7
		L21.4,194.9L21.4,194.9z M11.7,176.3l6.2-7.1c0.9-1,1.4-1.8,1.7-2.5c0.2-0.5,0.2-1,0.2-1.4l0.4-0.1l1.5,8.6l-0.4,0.1
		c-0.1-0.5-0.3-0.9-0.4-1c-0.1-0.1-0.3-0.2-0.5-0.2c-0.3,0.1-0.9,0.5-1.7,1.5l-4.1,4.6l0.6,0.5l4.5-0.8c0.9-0.2,1.4-0.3,1.6-0.4
		c0.2-0.1,0.3-0.4,0.4-0.7c0.1-0.3,0.1-0.8,0-1.4l0.4-0.1l1.5,8.3l-0.4,0.1l-0.1-0.5c-0.1-0.5-0.2-0.8-0.5-1.1
		c-0.2-0.2-0.4-0.3-0.7-0.4c-0.2-0.1-0.7,0-1.6,0.1l-10.8,1.9c-0.8,0.1-1.4,0.3-1.6,0.4c-0.2,0.1-0.3,0.3-0.5,0.6
		c-0.1,0.3-0.1,0.7,0,1.1l0.1,0.5l-0.5,0.1L5.6,179l0.5-0.1c0.1,0.6,0.3,1,0.5,1.2c0.2,0.2,0.4,0.3,0.7,0.4c0.2,0.1,0.7,0,1.6-0.1
		l5.1-0.9l-6-5.2c-0.8-0.7-1.5-1.1-1.9-1c-0.3,0.1-0.5,0.3-0.6,0.7c-0.1,0.2,0,0.6,0.1,1.4L5,175.4l-1.1-6.4l0.5-0.1
		c0.1,0.6,0.3,1,0.5,1.3c0.2,0.3,0.9,1,2.1,2L11.7,176.3L11.7,176.3z M3.3,164.3l-0.2-8.6l0.5,0l0,0.4c0,0.6,0.1,1.1,0.2,1.3
		c0.1,0.2,0.3,0.4,0.6,0.5c0.2,0.1,0.8,0.1,1.8,0.1l8.2-0.1c1.5,0,2.5-0.2,3-0.4c0.5-0.2,0.9-0.6,1.2-1.1c0.3-0.5,0.5-1.2,0.4-2
		c0-0.9-0.2-1.7-0.6-2.3c-0.4-0.6-1-1.1-1.7-1.4c-0.7-0.3-2-0.4-3.7-0.4l-6.8,0.1c-0.7,0-1.3,0.1-1.6,0.3c-0.3,0.2-0.5,0.4-0.7,0.6
		c-0.2,0.4-0.3,0.9-0.3,1.6l-0.5,0L3,147.1l0.5,0l0,0.3c0,0.5,0.1,0.9,0.3,1.2c0.2,0.3,0.5,0.5,0.9,0.7c0.3,0.1,0.7,0.1,1.4,0.1
		l6.3-0.1c2,0,3.4,0.1,4.3,0.3c0.9,0.2,1.7,0.9,2.4,1.9c0.8,1,1.1,2.4,1.2,4.1c0,1.4-0.1,2.6-0.5,3.4c-0.5,1.1-1.2,1.9-2,2.3
		c-0.8,0.5-1.9,0.7-3.3,0.7l-8.2,0.1c-1,0-1.6,0.1-1.8,0.2c-0.2,0.1-0.4,0.3-0.5,0.6c-0.1,0.3-0.2,0.7-0.2,1.5L3.3,164.3L3.3,164.3z
		 M15.2,129.3l5.8,1.1l-1.3,14.8l-0.5,0l0-0.6c0-0.5,0-0.9-0.2-1.2c-0.1-0.2-0.3-0.4-0.5-0.5c-0.2-0.1-0.7-0.2-1.5-0.3l-11-1
		c-0.9-0.1-1.4-0.1-1.6,0c-0.2,0.1-0.4,0.2-0.6,0.5c-0.2,0.3-0.3,0.6-0.3,1.1l0,0.6l-0.5,0l0.8-8.9l0.5,0l-0.1,0.7
		c0,0.5,0,0.9,0.2,1.2c0.1,0.2,0.3,0.4,0.5,0.6c0.2,0.1,0.7,0.2,1.5,0.3l10.6,0.9c0.9,0.1,1.4,0.1,1.6,0c0.2-0.1,0.4-0.3,0.6-0.5
		c0.1-0.2,0.2-0.7,0.2-1.5l0.1-1.4c0.1-0.9,0-1.6-0.3-2.3c-0.3-0.6-0.7-1.2-1.3-1.7c-0.6-0.5-1.6-1-2.9-1.5L15.2,129.3L15.2,129.3z
		 M8.6,111.1l4.4,1.1l-0.1,0.4c-1.1,0-1.9,0.1-2.4,0.3c-0.5,0.2-1,0.5-1.4,1c-0.2,0.3-0.4,0.8-0.6,1.5l-0.3,1.2l12.5,3.1
		c0.8,0.2,1.4,0.3,1.6,0.3c0.2,0,0.5-0.2,0.7-0.4c0.2-0.2,0.4-0.6,0.5-1l0.1-0.5l0.4,0.1l-2.1,8.5l-0.4-0.1l0.1-0.5
		c0.1-0.5,0.1-0.9,0-1.2c-0.1-0.2-0.2-0.4-0.5-0.6c-0.2-0.1-0.7-0.3-1.5-0.5l-12.5-3.1L7,121.7c-0.3,1.1-0.2,1.9,0.1,2.6
		c0.5,0.9,1.3,1.5,2.4,2l-0.1,0.5L5,125.6L8.6,111.1L8.6,111.1z M23.5,103.7l-1.9,5.6l1.3,1.2c0.4,0.4,0.8,0.6,1.2,0.8
		c0.4,0.2,0.8,0.1,1.2-0.2c0.2-0.2,0.5-0.6,0.8-1.4l0.4,0.1l-1.8,5.3l-0.4-0.1c0.1-0.6,0-1.1-0.2-1.6c-0.3-0.5-0.9-1.2-1.9-2.2
		l-10.7-10l0.1-0.2l14.9-1.2c1.4-0.1,2.3-0.3,2.8-0.5c0.3-0.2,0.6-0.5,0.8-1l0.4,0.1l-2.6,7.6l-0.4-0.1l0.1-0.3
		c0.2-0.6,0.3-1.1,0.2-1.4c-0.1-0.2-0.2-0.4-0.4-0.4c-0.1,0-0.3-0.1-0.5-0.1c-0.1,0-0.4,0-1,0L23.5,103.7L23.5,103.7z M22.5,103.8
		l-6.2,0.5l4.6,4.3L22.5,103.8L22.5,103.8z M30.5,81.3l4.3,2.8c0.7,0.5,1.2,0.7,1.4,0.8c0.2,0,0.5,0,0.8-0.2
		c0.3-0.1,0.6-0.4,0.8-0.8l0.3-0.5l0.4,0.2L33.8,91l-0.4-0.2l0.3-0.5c0.3-0.4,0.4-0.8,0.4-1.1c0-0.2-0.1-0.5-0.2-0.7
		c-0.1-0.2-0.5-0.5-1.2-1l-9.2-6c-0.7-0.5-1.2-0.7-1.4-0.8c-0.2,0-0.5,0-0.8,0.2c-0.3,0.1-0.6,0.4-0.8,0.8l-0.3,0.5l-0.4-0.2
		l4.8-7.3l0.4,0.2l-0.3,0.5c-0.3,0.4-0.4,0.8-0.4,1.1c0,0.2,0.1,0.5,0.2,0.7c0.1,0.2,0.5,0.5,1.2,1l4,2.6l3.2-5l-4-2.6
		c-0.7-0.5-1.2-0.7-1.4-0.8c-0.2,0-0.5,0-0.8,0.2c-0.3,0.1-0.6,0.4-0.8,0.8l-0.3,0.5l-0.4-0.3l4.8-7.3l0.4,0.2L30,67
		c-0.3,0.4-0.4,0.8-0.4,1.1c0,0.2,0.1,0.5,0.2,0.7c0.1,0.2,0.5,0.5,1.2,1l9.2,6c0.7,0.5,1.2,0.7,1.4,0.8c0.2,0,0.5,0,0.8-0.2
		c0.3-0.1,0.6-0.4,0.8-0.8l0.3-0.5l0.4,0.2l-4.8,7.3l-0.4-0.2l0.3-0.5c0.3-0.4,0.4-0.8,0.4-1.1c0-0.2-0.1-0.5-0.2-0.7
		c-0.1-0.2-0.5-0.5-1.2-1l-4.3-2.8L30.5,81.3L30.5,81.3z M38.1,55.8c1.7-2.1,3.7-3.2,6-3.4c2.3-0.2,4.4,0.6,6.3,2.2
		c1.6,1.4,2.6,3.1,3,5.1c0.5,2.6-0.2,5.1-2.2,7.4c-2,2.3-4.3,3.4-6.9,3.3c-2.1-0.1-3.9-0.8-5.6-2.3c-1.9-1.6-2.9-3.6-3-6
		C35.7,59.7,36.5,57.6,38.1,55.8L38.1,55.8z M38.8,56.2c-1,1.2-1.2,2.5-0.5,4.2c0.5,1.3,1.7,2.8,3.5,4.4c2.2,1.9,4.1,2.9,5.8,3
		c1.2,0.1,2.2-0.3,3-1.3c0.6-0.6,0.9-1.3,0.9-2c0.1-0.9-0.2-1.9-0.8-2.9c-0.6-1.1-1.6-2.2-3-3.4c-1.7-1.5-3.1-2.4-4.1-2.8
		c-1.1-0.4-2-0.5-2.8-0.3C40,55.2,39.4,55.6,38.8,56.2L38.8,56.2z M56,37.9l3.7,4.2l-0.4,0.3C58.2,41.5,57,41,55.7,41
		c-1.3,0-2.3,0.3-3.1,1c-0.6,0.5-1,1.1-1.1,1.8c-0.1,0.7,0.1,1.2,0.4,1.7c0.2,0.3,0.5,0.5,0.8,0.6c0.4,0.1,1,0.2,1.6,0.1
		c0.5,0,1.5-0.2,3-0.6c2.1-0.5,3.7-0.7,4.8-0.5c1.1,0.2,2,0.8,2.7,1.6c0.9,1.1,1.3,2.3,1.1,3.8c-0.2,1.5-0.9,2.7-2.2,3.8
		c-0.4,0.3-0.8,0.6-1.2,0.8c-0.4,0.2-1,0.4-1.7,0.7c-0.4,0.1-0.7,0.3-0.9,0.4c-0.2,0.1-0.3,0.3-0.4,0.6c-0.1,0.3-0.1,0.6,0,1
		l-0.3,0.3l-4.1-4.8l0.3-0.3c1.4,1.1,2.8,1.7,4.2,1.8c1.4,0.1,2.5-0.3,3.5-1.1c0.7-0.6,1.1-1.3,1.2-2c0.1-0.7-0.1-1.4-0.5-1.9
		c-0.3-0.3-0.6-0.5-1-0.7c-0.4-0.1-0.9-0.2-1.4-0.2c-0.5,0-1.4,0.2-2.6,0.5c-1.6,0.4-2.9,0.6-3.7,0.6c-0.9,0-1.6-0.1-2.3-0.4
		c-0.7-0.3-1.3-0.7-1.8-1.3c-0.9-1-1.2-2.2-1.1-3.6c0.2-1.3,0.8-2.5,1.9-3.4c0.4-0.3,0.9-0.6,1.3-0.9c0.4-0.2,0.8-0.3,1.4-0.5
		c0.6-0.2,1-0.3,1.1-0.4c0.2-0.1,0.3-0.3,0.3-0.5c0-0.2-0.1-0.5-0.3-0.9L56,37.9L56,37.9z M70.1,38.9l2.7,3.8
		c0.5,0.7,0.9,1.2,1.1,1.3c0.2,0.1,0.5,0.2,0.8,0.1c0.3,0,0.8-0.3,1.4-0.7l0.3,0.4l-7,4.9l-0.3-0.4c0.6-0.4,1-0.8,1.2-1.1
		c0.1-0.3,0.2-0.5,0.2-0.8c0-0.3-0.3-0.7-0.8-1.5l-6.2-8.9c-0.5-0.7-0.9-1.2-1.1-1.3c-0.2-0.1-0.5-0.2-0.8-0.1
		c-0.3,0-0.8,0.3-1.4,0.7L59.8,35l6-4.2c2-1.4,3.6-2,5-1.9c1.3,0.1,2.4,0.7,3.1,1.7c0.6,0.9,0.9,1.8,0.8,2.9c-0.1,1-0.6,2-1.4,2.9
		C72.7,37,71.7,37.8,70.1,38.9L70.1,38.9z M65.4,32.2l4.1,5.9c0.2-0.1,0.4-0.3,0.5-0.3c0.8-0.6,1.3-1.3,1.4-2.1
		c0.1-0.8-0.2-1.7-0.9-2.7c-0.7-1-1.5-1.6-2.2-1.8c-0.8-0.2-1.6,0.1-2.5,0.7L65.4,32.2L65.4,32.2z M83.3,19.9
		c2.3-1.3,4.6-1.6,6.8-0.9c2.2,0.7,3.9,2.2,5,4.4c1,1.9,1.3,3.8,0.9,5.8c-0.5,2.7-2.1,4.7-4.8,6c-2.7,1.4-5.2,1.5-7.6,0.4
		c-1.9-0.8-3.3-2.3-4.3-4.2c-1.1-2.2-1.3-4.4-0.6-6.7C79.5,22.6,81,21,83.3,19.9L83.3,19.9z M83.7,20.6c-1.4,0.7-2,1.9-2,3.7
		c0,1.4,0.6,3.2,1.6,5.4c1.3,2.5,2.7,4.2,4.2,5c1.1,0.5,2.1,0.5,3.3-0.1c0.8-0.4,1.3-0.9,1.6-1.5c0.4-0.8,0.5-1.8,0.4-3
		c-0.2-1.2-0.7-2.6-1.5-4.3c-1-2-1.9-3.4-2.8-4.1c-0.9-0.8-1.7-1.2-2.5-1.4C85.2,20,84.5,20.2,83.7,20.6L83.7,20.6z M100.7,30.3
		l-0.1-0.4l0.5-0.2c0.5-0.1,0.8-0.3,1-0.6c0.2-0.2,0.3-0.5,0.4-0.8c0-0.2-0.1-0.7-0.4-1.5l-3.4-10.5c-0.3-0.8-0.5-1.3-0.6-1.5
		c-0.2-0.2-0.4-0.3-0.7-0.4c-0.3-0.1-0.7,0-1.1,0.1l-0.5,0.2l-0.1-0.4l7.1-2.3c1.9-0.6,3.5-0.9,4.8-0.7c1.6,0.2,3,0.8,4.1,1.8
		c1.1,1,2,2.4,2.5,4c0.4,1.1,0.5,2.2,0.5,3.3c-0.1,1.1-0.3,2-0.6,2.8c-0.4,0.8-0.9,1.5-1.5,2.1c-0.6,0.6-1.4,1.2-2.5,1.7
		c-0.4,0.2-1.2,0.5-2.2,0.9L100.7,30.3L100.7,30.3z M101.9,13.3l4,12.4c0.2,0.7,0.4,1,0.5,1.2c0.1,0.1,0.3,0.2,0.4,0.2
		c0.3,0.1,0.6,0,1-0.1c1.3-0.4,2.2-1.2,2.6-2.3c0.5-1.5,0.4-3.5-0.4-6.1c-0.7-2-1.5-3.6-2.6-4.6c-0.8-0.8-1.7-1.2-2.6-1.3
		C104.2,12.7,103.2,12.9,101.9,13.3L101.9,13.3z M127.9,17.8l-5.8,1l-0.4,1.7c-0.1,0.6-0.2,1-0.1,1.4c0.1,0.5,0.3,0.8,0.7,0.9
		c0.2,0.1,0.8,0.1,1.7,0l0.1,0.4l-5.5,1l-0.1-0.4c0.6-0.2,1-0.5,1.3-1c0.3-0.5,0.6-1.4,1-2.7l3.6-14.2l0.2,0l8.3,12.5
		c0.8,1.2,1.4,1.9,1.8,2.2c0.3,0.2,0.7,0.3,1.2,0.2l0.1,0.4l-8,1.4l-0.1-0.4l0.3-0.1c0.6-0.1,1.1-0.3,1.3-0.5
		c0.2-0.2,0.2-0.4,0.2-0.6c0-0.1-0.1-0.3-0.2-0.4c0-0.1-0.2-0.4-0.5-0.8L127.9,17.8L127.9,17.8z M127.3,17l-3.4-5.2l-1.5,6.1
		L127.3,17L127.3,17z M127.1,0l-3.3,4.9l-1,0.2l0.7-4.5L127.1,0L127.1,0z M143.7,13.3l0.1,4.7c0,0.9,0.1,1.5,0.2,1.7
		c0.1,0.2,0.3,0.4,0.6,0.6c0.3,0.1,0.8,0.2,1.6,0.2l0,0.5l-8.6,0.1l0-0.5c0.8,0,1.3-0.1,1.6-0.2c0.3-0.1,0.5-0.3,0.6-0.6
		c0.1-0.2,0.1-0.8,0.1-1.7l-0.2-10.8c0-0.9-0.1-1.5-0.2-1.7c-0.1-0.2-0.3-0.4-0.6-0.5c-0.3-0.1-0.8-0.2-1.6-0.2l0-0.5l7.8-0.1
		c2,0,3.5,0.1,4.4,0.3c0.9,0.3,1.7,0.8,2.3,1.5c0.6,0.7,0.9,1.6,0.9,2.6c0,1.2-0.4,2.3-1.3,3.1c-0.6,0.5-1.3,0.9-2.4,1.2l4.1,5.6
		c0.5,0.7,0.9,1.2,1.1,1.3c0.3,0.2,0.7,0.4,1.2,0.4l0,0.5l-5.3,0.1l-5.5-7.5L143.7,13.3L143.7,13.3z M143.5,5.1l0.1,7.3l0.7,0
		c1.1,0,2-0.1,2.6-0.4c0.6-0.2,1-0.6,1.3-1.2c0.3-0.6,0.5-1.3,0.5-2.1c0-1.3-0.3-2.2-0.9-2.8c-0.6-0.6-1.6-0.9-2.9-0.9L143.5,5.1
		L143.5,5.1z M169.1,4.8l-0.3,5.6l-0.5,0c-0.1-1.4-0.6-2.6-1.5-3.5c-0.9-0.9-1.8-1.4-2.9-1.5c-0.8-0.1-1.5,0.1-2,0.5
		c-0.5,0.4-0.8,0.9-0.8,1.5c0,0.4,0,0.7,0.2,1c0.2,0.4,0.6,0.8,1.1,1.2c0.4,0.3,1.2,0.8,2.6,1.6c1.9,1.1,3.1,2.1,3.8,3
		c0.6,0.9,0.9,1.9,0.8,3c-0.1,1.4-0.7,2.6-1.9,3.5c-1.2,0.9-2.6,1.3-4.2,1.2c-0.5,0-1-0.1-1.5-0.3c-0.5-0.1-1-0.4-1.7-0.7
		c-0.4-0.2-0.7-0.3-1-0.3c-0.2,0-0.4,0-0.7,0.2c-0.3,0.1-0.5,0.4-0.6,0.7l-0.5,0l0.4-6.3l0.5,0c0.2,1.8,0.8,3.2,1.8,4.2
		c1,1,2,1.5,3.2,1.6c0.9,0.1,1.7-0.1,2.2-0.6c0.6-0.5,0.9-1,0.9-1.7c0-0.4-0.1-0.8-0.2-1.2c-0.2-0.4-0.5-0.8-0.9-1.1
		c-0.4-0.4-1.1-0.8-2.2-1.5c-1.5-0.9-2.5-1.6-3.1-2.1c-0.6-0.6-1.1-1.2-1.4-1.9c-0.3-0.7-0.4-1.4-0.4-2.2c0.1-1.3,0.7-2.4,1.7-3.3
		c1-0.9,2.3-1.2,3.8-1.1c0.5,0,1.1,0.1,1.6,0.3c0.4,0.1,0.8,0.3,1.4,0.6c0.5,0.3,0.9,0.5,1.1,0.5c0.2,0,0.4,0,0.5-0.2
		c0.1-0.1,0.3-0.4,0.4-0.9L169.1,4.8L169.1,4.8z M183.4,14.6l4.1,8.5c0.6,1.2,1.1,2,1.6,2.5c0.4,0.4,0.8,0.6,1.3,0.7l-0.1,0.4
		l-8.5-2l0.1-0.4c0.5,0.1,0.9,0.1,1.1,0c0.2-0.1,0.3-0.2,0.3-0.4c0.1-0.3-0.1-1.1-0.7-2.2l-2.6-5.6l-0.7,0.4l-1,4.4
		c-0.2,0.8-0.3,1.4-0.2,1.6c0,0.2,0.2,0.4,0.4,0.7c0.2,0.2,0.7,0.4,1.3,0.5l-0.1,0.4l-8.2-1.9l0.1-0.4l0.5,0.1
		c0.5,0.1,0.9,0.1,1.2,0c0.2-0.1,0.4-0.2,0.6-0.5c0.1-0.2,0.3-0.7,0.5-1.5l2.5-10.7c0.2-0.8,0.3-1.4,0.2-1.6c0-0.2-0.2-0.5-0.4-0.7
		c-0.2-0.2-0.6-0.4-1-0.5l-0.5-0.1l0.1-0.4l8.1,1.9l-0.1,0.4c-0.5-0.1-1-0.1-1.3-0.1c-0.2,0.1-0.4,0.2-0.6,0.5
		c-0.1,0.2-0.3,0.7-0.5,1.5l-1.2,5.1l7.2-3.5c1-0.5,1.5-0.9,1.6-1.3c0.1-0.3,0-0.6-0.3-0.8c-0.2-0.1-0.6-0.3-1.3-0.5l0.1-0.4
		l6.4,1.5l-0.1,0.4c-0.6-0.1-1-0.1-1.4,0c-0.4,0.1-1.2,0.5-2.6,1.1L183.4,14.6L183.4,14.6z M202.8,14.8l-2.4,6.3l0.3,0.1
		c1,0.4,1.8,0.3,2.5-0.1c0.7-0.5,1.3-1.3,1.9-2.4l0.4,0.2l-3.1,8.2l-0.4-0.2c0.2-0.9,0.3-1.7,0.3-2.4c-0.1-0.7-0.3-1.2-0.6-1.5
		c-0.3-0.3-0.8-0.7-1.6-0.9l-1.7,4.4c-0.3,0.9-0.5,1.4-0.5,1.6c0,0.2,0.1,0.4,0.2,0.6c0.1,0.2,0.4,0.4,0.9,0.6l0.9,0.4
		c1.5,0.6,2.8,0.7,3.9,0.3c1.1-0.3,2.2-1.1,3.1-2.4l0.4,0.2l-2.6,4.7l-13.5-5.2l0.2-0.4l0.5,0.2c0.5,0.2,0.8,0.2,1.2,0.2
		c0.2,0,0.5-0.2,0.7-0.4c0.2-0.1,0.4-0.6,0.7-1.4l3.9-10.3c0.3-0.7,0.4-1.1,0.4-1.3c0-0.3,0-0.6-0.2-0.8c-0.2-0.3-0.6-0.6-1.1-0.8
		l-0.5-0.2l0.2-0.4l13.1,5l-1.8,4.6l-0.4-0.2c0.2-1.2,0.2-2.1,0-2.8c-0.2-0.6-0.6-1.2-1.3-1.7c-0.4-0.3-1.2-0.7-2.3-1.1L202.8,14.8
		L202.8,14.8z M218.1,21.2l0.2-0.4l7.8,4.3l-0.2,0.4l-0.5-0.3c-0.4-0.2-0.8-0.4-1.2-0.3c-0.2,0-0.5,0.1-0.7,0.3
		c-0.2,0.1-0.5,0.6-0.9,1.3l-4,7.2c-0.8,1.4-1.5,2.3-2.1,2.8c-0.6,0.5-1.4,0.7-2.4,0.8c-1,0-1.9-0.2-2.9-0.8c-1.2-0.7-2-1.6-2.4-2.6
		c-0.4-1.1-0.4-2,0-2.8c0.3-0.5,0.7-0.8,1.1-1c0.5-0.1,1-0.1,1.4,0.2c0.4,0.2,0.7,0.6,0.9,1c0.1,0.4,0.1,0.9-0.1,1.3
		c-0.1,0.2-0.2,0.4-0.4,0.5c-0.1,0.1-0.3,0.2-0.6,0.4c-0.4,0.2-0.6,0.3-0.6,0.5c-0.1,0.2-0.1,0.4,0,0.6c0.2,0.4,0.5,0.7,0.9,0.9
		c0.3,0.2,0.6,0.2,0.9,0.2c0.3,0,0.6-0.2,0.8-0.5c0.3-0.3,0.8-1.2,1.7-2.7l4.3-7.8c0.4-0.7,0.6-1.2,0.7-1.5c0-0.2-0.1-0.5-0.2-0.8
		c-0.2-0.3-0.5-0.5-0.9-0.8L218.1,21.2L218.1,21.2z M231.8,48.7l-0.3,0.4l-7.2-5l0.3-0.4l0.5,0.3c0.4,0.3,0.8,0.4,1.1,0.5
		c0.2,0,0.5,0,0.7-0.2c0.2-0.1,0.5-0.5,1-1.2l6.3-9c0.5-0.7,0.8-1.2,0.8-1.4c0.1-0.2,0-0.5-0.1-0.8c-0.1-0.3-0.4-0.6-0.8-0.8
		l-0.5-0.3l0.3-0.4l7.2,5l-0.3,0.4l-0.5-0.3c-0.4-0.3-0.8-0.4-1.1-0.5c-0.2,0-0.5,0-0.8,0.2c-0.2,0.1-0.5,0.5-1,1.2l-6.3,9
		c-0.5,0.7-0.8,1.2-0.8,1.4c0,0.2,0,0.5,0.1,0.8c0.1,0.3,0.4,0.6,0.8,0.8L231.8,48.7L231.8,48.7z M248.5,41.9l-1,13.2l4.9-5.3
		c0.7-0.7,1-1.3,1.1-1.8c0-0.6-0.3-1.2-1-1.9l0.3-0.3l4,3.8l-0.3,0.3c-0.6-0.4-1-0.7-1.3-0.7c-0.3-0.1-0.6,0-0.9,0.1
		c-0.3,0.1-0.7,0.5-1.3,1.1l-9.5,10.2l-0.3-0.3l1.2-17.9l-7.2,7.8c-0.7,0.7-0.9,1.3-0.8,1.9c0.1,0.5,0.3,1,0.8,1.4l0.3,0.3l-0.3,0.3
		l-4.3-4l0.3-0.3c0.7,0.6,1.3,0.9,1.8,0.9c0.5,0,1.1-0.4,1.7-1l8-8.6l0-0.6c0-0.6,0-1-0.1-1.3c-0.1-0.3-0.3-0.6-0.7-1l0.3-0.3
		L248.5,41.9L248.5,41.9z M263.1,58.4l-5.3,4.3l0.3,0.4c0.5,0.6,0.9,1,1.4,1.2c0.5,0.2,1,0.3,1.6,0.2c0.6-0.1,1.3-0.4,2.1-0.8
		l0.3,0.3l-6.5,5.3l-0.3-0.3c1.1-1.1,1.7-2.1,1.6-3c0-0.9-0.3-1.6-0.9-2.3l-0.3-0.4l-4,3.2c-0.7,0.5-1,0.9-1.2,1.1
		c-0.1,0.2-0.1,0.5-0.1,0.8c0,0.3,0.2,0.7,0.5,1l0.4,0.4l-0.4,0.3l-5.5-6.8l0.4-0.3l0.3,0.4c0.3,0.4,0.6,0.6,0.9,0.7
		c0.2,0.1,0.5,0.1,0.8,0c0.2-0.1,0.6-0.3,1.3-0.9l8.5-6.9c0.7-0.5,1.1-0.9,1.2-1.1c0.1-0.2,0.1-0.5,0.1-0.8c0-0.3-0.2-0.7-0.5-1
		l-0.4-0.4l0.4-0.3l8.9,11l-3.7,3l-0.3-0.4c0.8-0.8,1.3-1.6,1.4-2.3c0.1-0.7,0-1.5-0.4-2.3c-0.2-0.5-0.7-1.2-1.6-2.2L263.1,58.4
		L263.1,58.4z M276.4,75.3c1.4,2.3,1.8,4.5,1.2,6.8c-0.6,2.3-2,4-4.1,5.3c-1.8,1.1-3.8,1.5-5.8,1.2c-2.7-0.4-4.8-1.8-6.3-4.4
		c-1.5-2.6-1.8-5.1-0.8-7.6c0.7-1.9,2.1-3.4,4-4.6c2.2-1.2,4.4-1.5,6.6-0.9C273.5,71.7,275.3,73.1,276.4,75.3L276.4,75.3z
		 M275.8,75.8c-0.8-1.3-2-1.9-3.8-1.9c-1.4,0.1-3.2,0.7-5.3,1.9c-2.5,1.4-4,2.9-4.7,4.5c-0.5,1.1-0.4,2.2,0.2,3.3
		c0.4,0.7,1,1.2,1.6,1.5c0.8,0.4,1.8,0.4,3,0.2c1.2-0.2,2.6-0.8,4.2-1.7c1.9-1.1,3.2-2.1,4-3c0.7-0.9,1.2-1.7,1.2-2.5
		C276.4,77.2,276.2,76.5,275.8,75.8L275.8,75.8z M277,96.3l-4.3,1.8c-0.8,0.3-1.3,0.6-1.5,0.8c-0.2,0.2-0.3,0.4-0.3,0.8
		c0,0.3,0.1,0.8,0.4,1.5l-0.4,0.2l-3.2-7.9l0.4-0.2c0.3,0.7,0.6,1.2,0.8,1.4c0.2,0.2,0.5,0.3,0.7,0.3c0.3,0,0.8-0.1,1.6-0.5
		l10.1-4.1c0.8-0.3,1.3-0.6,1.5-0.8c0.2-0.2,0.3-0.4,0.3-0.8c0-0.3-0.1-0.8-0.4-1.5l0.4-0.2l2.9,7.2c0.8,1.9,1.2,3.3,1.3,4.3
		c0.1,1-0.1,1.9-0.6,2.7c-0.5,0.8-1.2,1.4-2.1,1.8c-1.1,0.5-2.3,0.4-3.3-0.1c-0.7-0.3-1.3-0.9-2-1.8l-3.7,5.8
		c-0.5,0.8-0.8,1.3-0.8,1.5c-0.1,0.4-0.1,0.8,0,1.2l-0.4,0.2l-2-4.9l5-7.8L277,96.3L277,96.3z M284.6,93.2l-6.8,2.7l0.3,0.7
		c0.4,1.1,0.8,1.8,1.2,2.3c0.4,0.4,0.9,0.7,1.6,0.8c0.6,0.1,1.3,0,2.2-0.3c1.2-0.5,1.9-1.1,2.3-1.9c0.3-0.8,0.3-1.8-0.2-3
		L284.6,93.2L284.6,93.2z M282.9,120.9l11.8,1.7l1.6,6.6l-0.4,0.1l-0.1-0.5c-0.1-0.5-0.3-0.8-0.5-1.1c-0.2-0.2-0.4-0.3-0.7-0.3
		c-0.2,0-0.7,0-1.5,0.2l-10.7,2.7c-0.8,0.2-1.3,0.4-1.5,0.5c-0.2,0.1-0.3,0.4-0.4,0.7c-0.1,0.3-0.1,0.7,0,1.1l0.1,0.5l-0.4,0.1
		l-2.1-8.5l0.4-0.1l0.1,0.5c0.1,0.5,0.3,0.8,0.5,1.1c0.2,0.2,0.4,0.3,0.7,0.3c0.2,0,0.7,0,1.5-0.2l12-3l-16.3-2.5l-0.1-0.3l13.1-10
		l-11.4,2.8c-0.8,0.2-1.3,0.3-1.5,0.4c-0.4,0.2-0.6,0.5-0.8,0.9c-0.2,0.4-0.2,1,0,1.7l-0.4,0.1l-1.4-5.6l0.4-0.1l0,0.2
		c0.1,0.4,0.2,0.7,0.4,1c0.2,0.3,0.4,0.5,0.7,0.6c0.2,0.1,0.6,0.2,1,0.2c0.1,0,0.5-0.1,1.2-0.3l10.3-2.6c0.8-0.2,1.3-0.4,1.5-0.5
		c0.2-0.1,0.3-0.4,0.4-0.7c0.1-0.3,0.1-0.7,0-1.1l-0.1-0.5l0.4-0.1l1.7,6.6L282.9,120.9L282.9,120.9z M285.3,144.6l-0.5-5.9
		l-1.7-0.6c-0.6-0.2-1-0.3-1.4-0.2c-0.5,0-0.8,0.3-1,0.7c-0.1,0.2-0.2,0.8-0.2,1.7l-0.5,0l-0.5-5.5l0.5,0c0.1,0.6,0.4,1.1,0.9,1.4
		c0.4,0.3,1.3,0.8,2.6,1.2l13.8,4.8l0,0.2l-13.1,7.2c-1.2,0.7-2,1.2-2.3,1.6c-0.2,0.3-0.3,0.7-0.3,1.2l-0.5,0l-0.7-8.1l0.5,0l0,0.3
		c0.1,0.6,0.2,1.1,0.4,1.3c0.1,0.2,0.3,0.2,0.6,0.2c0.1,0,0.3-0.1,0.4-0.1c0.1,0,0.4-0.2,0.9-0.4L285.3,144.6L285.3,144.6z
		 M286.2,144.1l5.5-3l-6-2.1L286.2,144.1L286.2,144.1z M296.4,168.8l-4.5-0.3l0-0.4c1.1-0.2,1.8-0.4,2.3-0.7
		c0.5-0.3,0.9-0.7,1.2-1.2c0.2-0.3,0.3-0.8,0.3-1.6l0.1-1.2l-12.9-0.9c-0.9-0.1-1.4-0.1-1.6,0c-0.2,0.1-0.4,0.3-0.6,0.5
		c-0.2,0.3-0.3,0.6-0.3,1.1l0,0.6l-0.5,0l0.6-8.7l0.5,0l0,0.6c0,0.5,0,0.9,0.2,1.2c0.1,0.2,0.3,0.4,0.6,0.5c0.2,0.1,0.7,0.2,1.5,0.2
		l12.9,0.9l0.1-1.2c0.1-1.1-0.1-2-0.5-2.5c-0.6-0.8-1.5-1.3-2.7-1.6l0-0.5l4.5,0.3L296.4,168.8L296.4,168.8z M278.4,178.4l-0.4-0.1
		l1.5-8.6l0.4,0.1l-0.1,0.5c-0.1,0.5-0.1,0.9,0.1,1.2c0.1,0.2,0.2,0.4,0.5,0.6c0.2,0.1,0.7,0.3,1.5,0.4l10.8,1.9
		c0.8,0.1,1.4,0.2,1.6,0.1c0.2,0,0.4-0.2,0.6-0.4c0.2-0.2,0.3-0.6,0.4-1.1l0.1-0.5l0.5,0.1l-1.5,8.6l-0.5-0.1l0.1-0.5
		c0.1-0.5,0.1-0.9-0.1-1.2c-0.1-0.2-0.2-0.4-0.5-0.6c-0.2-0.1-0.7-0.3-1.5-0.4l-10.8-1.9c-0.8-0.1-1.4-0.2-1.6-0.1
		c-0.2,0.1-0.4,0.2-0.6,0.4c-0.2,0.2-0.4,0.6-0.4,1.1L278.4,178.4L278.4,178.4z M284.7,192.3l-8.6,3.8c-1.2,0.5-2.1,1-2.6,1.5
		c-0.4,0.4-0.6,0.8-0.7,1.2l-0.4-0.1l2.3-8.4l0.4,0.1c-0.1,0.5-0.1,0.9,0,1.1c0.1,0.2,0.2,0.3,0.4,0.4c0.3,0.1,1.1-0.1,2.2-0.6
		l5.6-2.5l-0.3-0.7l-4.4-1.2c-0.8-0.2-1.4-0.3-1.6-0.3c-0.2,0-0.5,0.2-0.7,0.4c-0.2,0.2-0.4,0.6-0.6,1.2l-0.4-0.1l2.2-8.1l0.4,0.1
		l-0.1,0.5c-0.1,0.5-0.1,0.9-0.1,1.2c0.1,0.2,0.2,0.4,0.4,0.6c0.2,0.1,0.7,0.3,1.5,0.5l10.6,2.8c0.8,0.2,1.4,0.3,1.6,0.3
		c0.2,0,0.5-0.2,0.7-0.4c0.2-0.2,0.4-0.6,0.5-1l0.1-0.5l0.4,0.1l-2.2,8l-0.4-0.1c0.1-0.5,0.2-1,0.1-1.3c-0.1-0.2-0.2-0.5-0.4-0.6
		c-0.2-0.2-0.7-0.3-1.5-0.6l-5-1.3l3.2,7.3c0.5,1,0.9,1.6,1.3,1.7c0.3,0.1,0.6,0,0.9-0.3c0.1-0.2,0.3-0.6,0.5-1.3l0.4,0.1l-1.7,6.3
		l-0.4-0.1c0.1-0.6,0.1-1,0.1-1.4c-0.1-0.4-0.4-1.3-1.1-2.7L284.7,192.3L284.7,192.3z M279.6,222.2l-0.4-0.2c0.2-0.5,0.2-1,0.1-1.4
		c-0.1-0.5-0.7-1.5-1.8-2.9l-4.1-5.8l-3.7-1.6c-0.8-0.4-1.3-0.5-1.5-0.5c-0.2,0-0.5,0.1-0.7,0.3c-0.3,0.2-0.5,0.5-0.7,0.9l-0.4,0.9
		l-0.4-0.2l3.8-8.6l0.4,0.2l-0.4,0.8c-0.2,0.4-0.3,0.8-0.2,1.2c0,0.2,0.1,0.5,0.3,0.7c0.1,0.2,0.6,0.4,1.4,0.8l3.1,1.4l8.1-0.7
		c1.6-0.1,2.6-0.3,2.9-0.5c0.4-0.2,0.7-0.5,0.9-1l0.4,0.2l-3.3,7.3l-0.4-0.2l0.1-0.3c0.2-0.4,0.3-0.8,0.2-1c0-0.2-0.1-0.4-0.3-0.4
		c-0.3-0.1-1.1-0.1-2.4,0l-6.3,0.5l3.4,4.8c0.8,1.2,1.4,1.9,1.8,2c0.2,0.1,0.4,0.1,0.6-0.1c0.3-0.2,0.6-0.6,1-1.3l0.4,0.2
		L279.6,222.2L279.6,222.2z M150.2,28.2c67.8,0,123.1,55.3,123.1,123.1c0,67.8-55.3,123.1-123.1,123.1
		c-67.8,0-123.1-55.3-123.1-123.1C27.1,83.5,82.4,28.2,150.2,28.2L150.2,28.2z M150.2,29.9c66.9,0,121.4,54.5,121.4,121.4
		c0,66.9-54.5,121.4-121.4,121.4c-66.9,0-121.4-54.5-121.4-121.4C28.8,84.4,83.3,29.9,150.2,29.9L150.2,29.9z M60.1,248.8l-4.5,5.1
		l0.3,0.2c0.8,0.7,1.6,0.9,2.4,0.8c0.8-0.2,1.7-0.7,2.6-1.6l0.4,0.3l-5.7,6.6l-0.4-0.3c0.6-0.8,0.9-1.5,1.1-2.2
		c0.2-0.7,0.2-1.2,0-1.7c-0.2-0.4-0.6-0.9-1.2-1.4l-3.1,3.6c-0.6,0.7-0.9,1.1-1,1.3c-0.1,0.2-0.1,0.4,0,0.7c0.1,0.2,0.3,0.5,0.7,0.8
		l0.8,0.7c1.2,1,2.4,1.6,3.5,1.6c1.2,0.1,2.4-0.3,3.7-1.2l0.3,0.3l-4.1,3.5L45,256.5l0.3-0.3l0.4,0.4c0.4,0.3,0.7,0.5,1.1,0.6
		c0.2,0.1,0.5,0,0.8-0.1c0.2-0.1,0.6-0.4,1.1-1.1l7.2-8.3c0.5-0.6,0.8-0.9,0.9-1.1c0.1-0.3,0.2-0.5,0.1-0.8
		c-0.1-0.4-0.3-0.7-0.7-1.1l-0.4-0.4l0.3-0.3l10.6,9.2l-3.2,3.7l-0.4-0.3c0.6-1.1,0.9-1.9,0.9-2.6c0-0.7-0.2-1.4-0.6-2.1
		c-0.2-0.4-0.9-1-1.8-1.9L60.1,248.8L60.1,248.8z M68.7,254.9l7,5.1l-0.3,0.4l-0.3-0.3c-0.5-0.4-0.9-0.6-1.2-0.6
		c-0.3,0-0.5,0-0.7,0.1c-0.2,0.1-0.6,0.6-1.2,1.4l-4.8,6.6c-0.9,1.2-1.4,2.1-1.5,2.6c-0.1,0.5,0,1.1,0.2,1.6
		c0.2,0.6,0.7,1.1,1.3,1.5c0.7,0.5,1.5,0.8,2.2,0.9c0.8,0,1.5-0.1,2.1-0.5c0.7-0.4,1.5-1.3,2.6-2.7l4-5.5c0.4-0.6,0.7-1.1,0.8-1.4
		c0.1-0.4,0-0.6-0.1-0.9c-0.2-0.4-0.6-0.8-1.1-1.1l0.3-0.4l4.7,3.4l-0.3,0.4l-0.3-0.2c-0.4-0.3-0.7-0.4-1.1-0.5
		c-0.4,0-0.7,0.1-1,0.3c-0.2,0.2-0.6,0.5-1,1.1l-3.7,5.1c-1.2,1.6-2.1,2.7-2.8,3.2c-0.7,0.6-1.7,0.8-2.9,0.8c-1.2,0-2.6-0.5-4-1.5
		c-1.2-0.8-2-1.7-2.4-2.4c-0.6-1.1-0.8-2-0.7-3c0.1-0.9,0.6-1.9,1.4-3.1l4.8-6.6c0.6-0.8,0.9-1.3,0.9-1.5c0.1-0.3,0-0.5-0.1-0.8
		c-0.1-0.3-0.5-0.6-1.1-1L68.7,254.9L68.7,254.9z M85.1,285.1l0.8-9.7c0.1-1.2,0.1-1.9,0-2.3c-0.1-0.3-0.2-0.5-0.5-0.8l0.2-0.4
		l5.4,2.9l-0.2,0.4c-0.3-0.2-0.6-0.2-0.8-0.2c-0.3,0.1-0.4,0.2-0.6,0.4c-0.1,0.3-0.3,0.9-0.3,1.8l-0.4,4.7l3.1-2.6
		c0.9-0.7,1.4-1.3,1.6-1.7c0.1-0.2,0.1-0.5,0-0.7c-0.1-0.2-0.3-0.5-0.7-0.7l0.2-0.4l3.3,1.8L96,278c-0.3-0.1-0.7-0.1-1-0.1
		c-0.3,0.1-0.9,0.5-1.8,1.2l-7.6,6.2L85.1,285.1L85.1,285.1z M111.3,285.4c1.4,0.8,2.4,1.5,2.8,2.2c0.7,1,0.9,2,0.5,3.2
		c-0.3,1.2-1.1,2.1-2.3,2.6c-1.5,0.6-3.3,0.6-5.6-0.1l-8.2-2.3l0.1-0.4c0.7,0.2,1.3,0.3,1.6,0.2c0.3-0.1,0.5-0.2,0.7-0.4
		c0.2-0.2,0.4-0.7,0.6-1.6l3-10.4c0.2-0.9,0.4-1.4,0.3-1.7c0-0.3-0.2-0.5-0.4-0.7c-0.2-0.2-0.7-0.4-1.4-0.6l0.1-0.4l7.7,2.2
		c1.8,0.5,3.1,1.1,3.8,1.6c0.7,0.5,1.1,1.2,1.4,2c0.3,0.8,0.3,1.5,0.1,2.3c-0.2,0.8-0.7,1.4-1.4,1.8
		C113.9,285.2,112.8,285.4,111.3,285.4L111.3,285.4z M107,283.8c1.1,0.3,2,0.4,2.6,0.3c0.6-0.1,1.1-0.3,1.5-0.7
		c0.4-0.4,0.7-0.9,0.9-1.6c0.2-0.7,0.2-1.3,0.1-1.9c-0.1-0.5-0.4-1-0.9-1.4c-0.5-0.4-1.3-0.7-2.4-1.1L107,283.8L107,283.8z
		 M106.8,284.7l-1.5,5.2l-0.2,0.6c-0.1,0.4-0.1,0.8,0,1.1c0.2,0.3,0.4,0.5,0.9,0.6c0.6,0.2,1.3,0.2,1.9,0.1c0.6-0.1,1.1-0.4,1.6-0.9
		c0.4-0.4,0.8-1,0.9-1.7c0.2-0.8,0.2-1.5,0.1-2.2c-0.2-0.7-0.5-1.2-1.1-1.7C108.9,285.4,108,285.1,106.8,284.7L106.8,284.7z
		 M123.6,289.6l-0.9,4.6c-0.2,0.9-0.2,1.5-0.2,1.7c0.1,0.3,0.2,0.5,0.5,0.7c0.3,0.2,0.8,0.4,1.5,0.5l-0.1,0.4l-8.4-1.6l0.1-0.4
		c0.8,0.1,1.3,0.2,1.6,0.1c0.3-0.1,0.5-0.2,0.7-0.4c0.2-0.2,0.3-0.8,0.5-1.6l2.1-10.6c0.2-0.9,0.2-1.5,0.2-1.7
		c-0.1-0.3-0.2-0.5-0.5-0.7c-0.2-0.2-0.7-0.4-1.5-0.5l0.1-0.5l7.6,1.5c2,0.4,3.4,0.8,4.3,1.3c0.9,0.5,1.5,1.1,2,2
		c0.4,0.8,0.6,1.8,0.4,2.8c-0.2,1.2-0.9,2.1-1.9,2.7c-0.7,0.4-1.5,0.6-2.6,0.7l2.9,6.3c0.4,0.8,0.7,1.3,0.8,1.6
		c0.3,0.3,0.6,0.5,1.1,0.6l-0.1,0.4l-5.2-1l-3.8-8.5L123.6,289.6L123.6,289.6z M125.2,281.6l-1.4,7.2l0.7,0.1c1.1,0.2,2,0.3,2.6,0.2
		c0.6-0.1,1.1-0.4,1.5-0.9s0.7-1.1,0.9-2c0.2-1.3,0.1-2.2-0.3-2.9c-0.5-0.7-1.3-1.2-2.7-1.4L125.2,281.6L125.2,281.6z M145.2,295
		l-5.9-0.2l-0.8,1.6c-0.3,0.5-0.4,1-0.4,1.3c0,0.5,0.2,0.8,0.5,1.1c0.2,0.1,0.8,0.3,1.6,0.4l0,0.5l-5.6-0.2l0-0.5
		c0.6-0.1,1.1-0.3,1.5-0.7c0.4-0.4,0.9-1.2,1.5-2.5l6.4-13.1l0.2,0l5.5,13.9c0.5,1.3,1,2.2,1.3,2.5c0.3,0.3,0.7,0.4,1.2,0.5l0,0.5
		l-8.1-0.3l0-0.5l0.3,0c0.6,0,1.1-0.1,1.4-0.2c0.2-0.1,0.3-0.3,0.3-0.6c0-0.1,0-0.3-0.1-0.5c0-0.1-0.1-0.4-0.3-0.9L145.2,295
		L145.2,295z M144.8,294.1l-2.3-5.8l-2.8,5.7L144.8,294.1L144.8,294.1z M166.6,282.1l0.4,4.5l-0.4,0c-0.4-1-0.7-1.7-1.1-2.2
		c-0.4-0.4-0.8-0.8-1.4-1c-0.3-0.1-0.9-0.1-1.6-0.1l-1.2,0.1l1.1,12.8c0.1,0.9,0.2,1.4,0.3,1.6c0.1,0.2,0.3,0.4,0.6,0.5
		c0.3,0.1,0.7,0.2,1.1,0.1l0.6,0l0,0.5l-8.7,0.8l0-0.5l0.6,0c0.5,0,0.9-0.2,1.1-0.4c0.2-0.1,0.4-0.3,0.5-0.6c0.1-0.2,0.1-0.7,0-1.6
		l-1.1-12.8L156,284c-1.1,0.1-1.9,0.4-2.4,0.9c-0.7,0.7-1,1.7-1.1,3l-0.5,0l-0.4-4.5L166.6,282.1L166.6,282.1z M179.2,296.4l0.1,0.4
		l-8.6,1.7l-0.1-0.4l0.5-0.1c0.5-0.1,0.8-0.3,1.1-0.5c0.2-0.2,0.3-0.4,0.4-0.7c0.1-0.2,0-0.7-0.2-1.5l-2.1-10.8
		c-0.2-0.8-0.3-1.4-0.4-1.5c-0.1-0.2-0.3-0.3-0.6-0.4c-0.3-0.1-0.7-0.1-1.1,0l-0.5,0.1l-0.1-0.5l8.6-1.7l0.1,0.5l-0.5,0.1
		c-0.5,0.1-0.8,0.2-1.1,0.5c-0.2,0.2-0.3,0.4-0.4,0.7c0,0.2,0,0.7,0.2,1.5l2.1,10.8c0.2,0.8,0.3,1.4,0.4,1.5
		c0.1,0.2,0.4,0.3,0.7,0.4c0.3,0.1,0.7,0.1,1.1,0L179.2,296.4L179.2,296.4z M188,277.2l1.7,5.3l-0.5,0.1c-0.6-1.3-1.5-2.2-2.6-2.8
		c-1.1-0.6-2.2-0.7-3.3-0.4c-0.8,0.2-1.4,0.6-1.7,1.2c-0.4,0.6-0.4,1.1-0.3,1.7c0.1,0.4,0.3,0.6,0.5,0.9c0.3,0.3,0.8,0.6,1.4,0.8
		c0.4,0.2,1.4,0.4,3,0.7c2.1,0.4,3.7,0.9,4.6,1.5c0.9,0.6,1.5,1.5,1.8,2.5c0.4,1.3,0.2,2.7-0.6,3.9c-0.8,1.3-2,2.1-3.6,2.6
		c-0.5,0.1-1,0.2-1.5,0.3c-0.5,0-1.1,0-1.9-0.1c-0.4,0-0.8,0-1,0c-0.2,0.1-0.4,0.2-0.6,0.4c-0.2,0.2-0.3,0.5-0.4,0.9l-0.4,0.1
		l-1.7-6.1l0.4-0.1c0.8,1.6,1.9,2.7,3.1,3.3c1.2,0.6,2.4,0.8,3.6,0.4c0.9-0.3,1.5-0.7,1.9-1.3c0.4-0.6,0.5-1.3,0.3-1.9
		c-0.1-0.4-0.3-0.7-0.6-1c-0.3-0.3-0.7-0.5-1.2-0.7c-0.5-0.2-1.3-0.4-2.5-0.6c-1.7-0.3-2.9-0.6-3.7-0.9c-0.8-0.3-1.4-0.7-2-1.3
		c-0.5-0.5-0.9-1.2-1.1-1.9c-0.4-1.3-0.2-2.5,0.5-3.7c0.7-1.2,1.7-2,3.2-2.4c0.5-0.1,1-0.2,1.6-0.2c0.4,0,0.9,0,1.5,0.1
		c0.6,0.1,1,0.1,1.2,0.1c0.2-0.1,0.4-0.2,0.4-0.3c0.1-0.2,0.1-0.5,0.1-1L188,277.2L188,277.2z M208.7,281.7l1.6,5.7l-13.8,5.6
		l-0.2-0.4l0.5-0.2c0.4-0.2,0.8-0.4,1-0.7c0.2-0.2,0.2-0.4,0.2-0.7c0-0.2-0.1-0.7-0.5-1.5l-4.1-10.2c-0.3-0.8-0.6-1.3-0.7-1.4
		c-0.2-0.2-0.4-0.3-0.7-0.3c-0.3,0-0.7,0-1.1,0.2l-0.5,0.2l-0.2-0.4l8.3-3.3l0.2,0.4l-0.7,0.3c-0.5,0.2-0.8,0.4-1,0.7
		c-0.2,0.2-0.2,0.4-0.2,0.7c0,0.2,0.1,0.7,0.5,1.5l4,9.9c0.3,0.8,0.6,1.3,0.7,1.5c0.2,0.2,0.4,0.3,0.7,0.3c0.2,0,0.7-0.2,1.4-0.5
		l1.3-0.5c0.8-0.3,1.4-0.8,1.9-1.3c0.4-0.5,0.7-1.2,0.9-1.9c0.1-0.8,0.2-1.9,0-3.2L208.7,281.7L208.7,281.7z M220,277.1l-5.2,2.8
		l0.1,1.8c0.1,0.6,0.2,1,0.3,1.3c0.2,0.4,0.6,0.6,1,0.6c0.3,0,0.8-0.2,1.6-0.5l0.2,0.4l-4.9,2.6l-0.2-0.4c0.5-0.4,0.8-0.8,1-1.4
		c0.2-0.5,0.2-1.5,0.1-2.9l-1-14.6l0.2-0.1l11.8,9.3c1.1,0.9,1.9,1.4,2.4,1.5c0.4,0.1,0.8,0,1.3-0.2l0.2,0.4l-7.1,3.8l-0.2-0.4
		l0.3-0.2c0.6-0.3,0.9-0.6,1.1-0.9c0.1-0.2,0.1-0.4,0-0.6c-0.1-0.1-0.2-0.3-0.3-0.4c-0.1-0.1-0.3-0.3-0.8-0.6L220,277.1L220,277.1z
		 M219.2,276.5l-4.9-3.9l0.4,6.3L219.2,276.5L219.2,276.5z M232.1,254.6l0.3,0.4c-0.4,0.4-0.7,1-0.7,1.7c0,0.5,0.1,1.6,0.5,3.2
		l2.8,13.7l-0.3,0.2l-12.4-7.4c-1.5-0.9-2.4-1.4-2.8-1.5c-0.4-0.1-0.8,0-1.4,0.4l-0.3-0.4l6.5-4.7l0.3,0.4l-0.2,0.2
		c-0.6,0.4-0.9,0.8-1,1.1c-0.1,0.2,0,0.4,0.1,0.6c0.1,0.1,0.2,0.2,0.4,0.4c0.2,0.1,0.7,0.4,1.5,0.9l7.8,4.6l-1.7-7.9
		c-0.2-1-0.4-1.6-0.5-1.9c-0.1-0.3-0.2-0.5-0.3-0.7c-0.1-0.2-0.3-0.3-0.5-0.4c-0.2-0.1-0.5-0.1-0.7,0c-0.4,0.1-0.8,0.3-1.3,0.7
		l-0.3-0.4L232.1,254.6L232.1,254.6z M237.9,250.9l4.5,5.1l0.3-0.2c0.8-0.7,1.2-1.4,1.1-2.3c-0.1-0.8-0.5-1.8-1.2-2.8l0.4-0.3
		l5.7,6.6l-0.4,0.3c-0.7-0.7-1.4-1.1-2-1.4c-0.6-0.3-1.2-0.3-1.6-0.2c-0.5,0.1-1,0.4-1.6,1l3.1,3.6c0.6,0.7,1,1.1,1.2,1.2
		c0.2,0.1,0.4,0.1,0.7,0.1c0.2,0,0.5-0.2,0.9-0.5l0.8-0.7c1.2-1,1.9-2.1,2.1-3.3c0.2-1.2,0-2.4-0.6-3.8l0.3-0.3l2.9,4.5l-10.9,9.5
		l-0.3-0.3l0.4-0.4c0.4-0.3,0.6-0.6,0.7-1c0.1-0.2,0.1-0.5,0-0.8c-0.1-0.2-0.4-0.6-0.9-1.3l-7.2-8.3c-0.5-0.6-0.8-0.9-1-1
		c-0.2-0.2-0.5-0.2-0.8-0.2c-0.4,0-0.8,0.2-1.2,0.6l-0.4,0.4l-0.3-0.3l10.6-9.2l3.2,3.7l-0.4,0.3c-1-0.8-1.8-1.2-2.5-1.3
		c-0.7-0.1-1.4,0-2.1,0.3c-0.4,0.2-1.1,0.7-2.1,1.5L237.9,250.9L237.9,250.9z"/>
	<path class="st3" d="M67.9,101.1c0-3.6-0.1-5.9-0.3-6.9C67.2,91.5,66,89.8,64,89c-1-0.4-2.9-0.7-5.7-1.1c-1.6-0.2-2.4-0.9-2.4-1.9
		c0-1.3,1-1.9,3-1.9h60.7c9.6,0,16.6-1,21.1-3.1c1.7-0.8,0.4-1.9,2.1-3.4c1.4-1.2,2.3-1.8,2.7-1.8c0.9,0,1.4,0.8,1.8,2.3l9.1,38.4
		c0.4,1.6,0.5,2.9,0.5,3.9c0,1.2-0.5,1.8-1.4,1.8c-1,0-2.1-1.4-3.4-4.2c-2.4-5.3-6.7-11.5-11.9-16.8c-6.7-6.8-14.8-12.2-20.5-12.4
		c-6.6-0.3-11.8,5.5-11.8,12.2v24.9h0.7c5.7,0,12.9-1,15.8-3.1c3-2,5.1-5.4,6.1-10c0.4-2,0.6-3.9,1-5.8c0.2-1.3,0.9-1.9,1.8-1.9
		c1.1,0,1.6,0.8,1.6,2.3v43.5c0,1.5-0.5,2.3-1.6,2.3c-1,0-1.6-0.9-1.9-2.6c-0.5-3-0.8-5.9-1.2-8.8c-1.3-8.1-10.3-11.4-21.1-11.4
		h-1.1v33.5c0,3.8,0.2,6.3,0.5,7.6c0.5,1.8,1.5,3.2,3.1,4.1c1.6,0.9,6.4,1.4,10.1,1.6c2.6,0.2,3.9,0.9,3.9,2c0,1.3-1,1.9-3,1.9H58.8
		c-2,0-3-0.6-3-1.9c0-1,0.8-1.7,2.4-1.9c2.8-0.4,4.7-0.7,5.7-1.1c2-0.8,3.2-2.5,3.7-5.2c0.2-1,0.3-3.3,0.3-6.9V101.1L67.9,101.1z"/>
	<path class="st3" d="M191.3,133.4v-25c0-3.6-0.1-6.9-0.3-7.8c-0.4-2.6-1.6-4.3-3.6-5.1c-1-0.4-3.9-0.7-6.6-1.1
		c-1.6-0.3-2.4-0.9-2.4-1.9c0-1.2,1-1.9,2.9-1.9l60.4,0.6c2,0,2.9,0.6,2.9,1.9c0,1-0.8,1.6-2.4,1.9c-2.8,0.4-4.6,0.7-5.6,1.1
		c-2,0.8-3.2,2.5-3.6,5.1c-0.2,1-0.3,4.3-0.3,7.8v62.2c0,3.6,0.1,5.8,0.3,6.8c0.5,2.6,1.6,4.3,3.6,5.1c1,0.4,2.9,0.7,5.6,1.1
		c1.6,0.2,2.4,0.9,2.4,1.9c0,1.2-1,1.9-2.9,1.9h-30v-34.7c0-1.8-0.1-4.5,0.2-6.3c0.2-1.1,0.6-2.3,1.7-2.7c1.1-0.4,3.7-0.7,4.9-0.9
		c2.7-0.4,5.1-2,5.1-5c0-3.5-2.9-5-6.1-5H191.3L191.3,133.4z"/>
	<path class="st3" d="M159.9,232.1c-2,0-2.9-0.6-2.9-1.9c0-1,0.8-1.6,2.4-1.9c2.8-0.4,4.6-0.7,5.6-1.1c2-0.8,3.2-2.5,3.6-5.1
		c0.2-1,0.3-3.3,0.3-6.8v-32.1h-27v32.1c0,3.6,0.1,5.8,0.3,6.8c0.5,2.6,1.6,4.3,3.6,5.1c1,0.4,2.9,0.7,5.6,1.1
		c1.6,0.2,2.4,0.9,2.4,1.9c0,1.2-1,1.9-2.9,1.9H93.1c-2,0-2.9-0.6-2.9-1.9c0-1,0.8-1.6,2.4-1.9c2.8-0.4,4.6-0.7,5.6-1.1
		c2-0.8,3.2-2.5,3.6-5.1c0.2-1,0.3-3.3,0.3-6.8v-31.1h20.3c3.2,0,6.1-1.5,6.1-5c0-3.8-3.8-5-6.9-5.2c-1.8-0.1-7.3-0.5-8.7-1.2
		c-0.9-0.5-1.3-1.2-1.6-2.1c-0.5-1.8-0.4-5-0.4-6.8v-27.4h11.8c2.1,1.3,3.7,3.2,4.1,5.8c0.5,2.9,0.8,5.9,1.2,8.8
		c0.4,2.7,2,5.2,5,5.2c3.2,0,4.8-2.5,4.8-5.5v-14.4h12.9c2,0,2.9,0.6,2.9,1.9c0,1-0.8,1.6-2.4,1.9c-8.9,1.3-9.5,8.1-9.5,16.6v20.3
		h27v-21c0-8.5-0.5-14.8-9.5-16c-1.6-0.3-2.4-0.9-2.4-1.9c0-1.2,1-1.9,2.9-1.9h57.7c2,0,2.9,0.6,2.9,1.9c0,1-0.8,1.6-2.4,1.9
		c-2.8,0.4-4.6,0.7-5.6,1.1c-2,0.8-3.2,2.5-3.6,5.1c-0.2,1-0.3,3.3-0.3,6.8v62.2c0,3.6,0.1,5.8,0.3,6.8c0.5,2.6,1.6,4.3,3.6,5.1
		c1,0.4,2.9,0.7,5.6,1.1c1.6,0.2,2.4,0.9,2.4,1.9c0,1.2-1,1.9-2.9,1.9H159.9L159.9,232.1z"/>
</g>
</svg>
